<svg version="1.2" baseProfile="tiny-ps" xmlns="http://www.w3.org/2000/svg" viewBox="0 0 289 381" width="289" height="381">
	<title>logo-svg</title>
	<style>
		tspan { white-space:pre }
		.shp0 { fill: #eac50f } 
	</style>
	<g id="Layer_2">
		<g id="Layer_1-2">
			<path id="Layer" class="shp0" d="M76.24 314L22.12 279.25C19.32 277.61 16.74 275.62 14.44 273.32C12.15 271.02 10.17 268.43 8.55 265.62C6.92 262.81 5.67 259.8 4.82 256.67C3.97 253.54 3.53 250.31 3.51 247.06L3 100.6C2.99 97.33 3.41 94.07 4.24 90.91C5.08 87.75 6.32 84.71 7.95 81.87C9.57 79.03 11.56 76.42 13.86 74.1C16.16 71.77 18.76 69.76 21.58 68.11L124.58 8.11C127.41 6.46 130.43 5.2 133.59 4.34C136.74 3.48 140 3.03 143.26 3.02C146.53 3 149.79 3.41 152.95 4.24C156.12 5.07 159.16 6.3 162 7.92L265.45 67.07C268.29 68.7 270.9 70.69 273.22 72.99C275.54 75.3 277.55 77.9 279.19 80.72C280.84 83.55 282.11 86.58 282.97 89.73C283.84 92.89 284.28 96.14 284.3 99.41L284.81 245.87C284.82 249.13 284.4 252.37 283.57 255.52C282.74 258.67 281.51 261.7 279.9 264.53C278.29 267.36 276.32 269.96 274.03 272.29C271.75 274.61 269.17 276.62 266.37 278.28L209.87 314L209.87 314C209.87 311.45 210.19 308.9 210.82 306.43C211.44 303.95 212.38 301.56 213.6 299.32C214.81 297.07 216.31 294.99 218.04 293.11C219.77 291.24 221.73 289.58 223.87 288.19L258.75 265.53C260.46 264.54 262.03 263.33 263.42 261.93C264.81 260.52 266.02 258.95 267 257.24C267.98 255.52 268.74 253.69 269.24 251.78C269.75 249.87 270 247.9 270 245.93L269.5 99.46C269.48 97.49 269.2 95.53 268.68 93.63C268.15 91.73 267.38 89.91 266.38 88.21C265.38 86.51 264.17 84.95 262.77 83.56C261.37 82.18 259.79 80.98 258.08 80L154.61 20.81C152.89 19.83 151.06 19.08 149.15 18.58C147.24 18.07 145.27 17.82 143.29 17.83C141.32 17.84 139.35 18.1 137.44 18.62C135.54 19.14 133.71 19.91 132 20.9L29 80.9C27.3 81.9 25.73 83.11 24.34 84.51C22.95 85.91 21.75 87.49 20.77 89.2C19.8 90.91 19.04 92.75 18.54 94.65C18.04 96.56 17.78 98.53 17.79 100.5L18.35 247C18.36 248.97 18.63 250.93 19.15 252.84C19.68 254.74 20.44 256.57 21.44 258.27C22.43 259.97 23.64 261.54 25.04 262.93C26.44 264.32 28.02 265.52 29.73 266.5L30.18 266.78L62.46 288.17C64.57 289.57 66.5 291.22 68.2 293.09C69.91 294.96 71.38 297.03 72.57 299.26C73.77 301.49 74.69 303.86 75.31 306.31C75.93 308.77 76.24 311.29 76.24 313.82L76.24 314Z" />
			<path id="Layer" fill-rule="evenodd" class="shp0" d="M79.24 319.49L20.55 281.81C17.53 280.04 14.76 277.88 12.3 275.39C9.84 272.91 7.71 270.11 5.96 267.08C4.22 264.05 2.87 260.8 1.96 257.43C1.04 254.05 0.57 250.57 0.55 247.07L0 100.61C-0.01 97.08 0.44 93.56 1.35 90.15C2.25 86.73 3.6 83.45 5.35 80.38C7.1 77.32 9.25 74.5 11.73 71.99C14.22 69.48 17.02 67.3 20.07 65.52L123.07 5.52C126.12 3.75 129.4 2.38 132.81 1.45C136.21 0.52 139.73 0.05 143.26 0.03C146.79 0.01 150.31 0.46 153.73 1.36C157.15 2.25 160.43 3.59 163.5 5.34L266.94 64.47C270 66.23 272.82 68.38 275.33 70.87C277.84 73.36 280.01 76.16 281.79 79.22C283.56 82.27 284.94 85.54 285.87 88.95C286.8 92.35 287.28 95.87 287.3 99.4L287.81 245.86C287.82 249.38 287.37 252.88 286.47 256.28C285.58 259.68 284.24 262.95 282.5 266.01C280.76 269.06 278.63 271.88 276.17 274.39C273.7 276.9 270.92 279.07 267.89 280.86L206.89 319.44L206.89 314C206.88 311.2 207.23 308.4 207.92 305.68C208.6 302.97 209.63 300.34 210.96 297.88C212.3 295.42 213.94 293.13 215.85 291.07C217.75 289.01 219.91 287.2 222.26 285.68L257.26 262.94C258.74 262.08 260.09 261.02 261.3 259.81C262.5 258.59 263.54 257.22 264.39 255.74C265.24 254.25 265.89 252.66 266.33 251.01C266.77 249.36 266.98 247.65 266.98 245.94L266.48 99.47C266.47 97.76 266.23 96.06 265.78 94.41C265.33 92.76 264.66 91.18 263.8 89.7C262.94 88.22 261.89 86.87 260.67 85.66C259.46 84.46 258.09 83.42 256.61 82.57L153.12 23.41C151.63 22.56 150.04 21.91 148.39 21.48C146.73 21.05 145.03 20.83 143.32 20.84C141.61 20.85 139.9 21.08 138.25 21.53C136.6 21.98 135.02 22.64 133.54 23.5L30.54 83.5C29.06 84.36 27.71 85.42 26.5 86.63C25.3 87.85 24.26 89.22 23.41 90.7C22.56 92.19 21.91 93.78 21.47 95.43C21.03 97.08 20.82 98.79 20.82 100.5L21.35 247C21.36 248.71 21.59 250.41 22.05 252.06C22.5 253.71 23.16 255.3 24.02 256.77C24.89 258.25 25.94 259.61 27.15 260.81C28.37 262.02 29.74 263.06 31.22 263.91L31.75 264.24L64.12 285.68C66.44 287.21 68.56 289.02 70.43 291.08C72.3 293.13 73.91 295.4 75.23 297.85C76.54 300.3 77.55 302.9 78.23 305.59C78.9 308.28 79.24 311.05 79.24 313.83L79.24 319.49ZM225.51 290.71C223.99 291.7 222.57 292.83 221.27 294.09C219.97 295.36 218.8 296.75 217.77 298.24C216.75 299.73 215.87 301.32 215.15 302.99C214.44 304.66 213.89 306.39 213.51 308.16L264.8 275.74C267.38 274.21 269.76 272.36 271.86 270.22C273.97 268.08 275.78 265.68 277.27 263.07C278.75 260.47 279.89 257.68 280.66 254.78C281.42 251.88 281.81 248.89 281.8 245.89L281.3 99.42C281.28 96.41 280.88 93.42 280.09 90.52C279.3 87.62 278.13 84.84 276.62 82.24C275.11 79.64 273.26 77.25 271.13 75.13C269 73.01 266.61 71.18 264 69.68L160.49 10.52C157.88 9.03 155.08 7.89 152.17 7.13C149.26 6.36 146.26 5.98 143.25 6C140.25 6.01 137.25 6.42 134.35 7.21C131.45 7.99 128.66 9.16 126.06 10.67L23.06 70.67C20.47 72.19 18.08 74.05 15.97 76.19C13.85 78.33 12.03 80.73 10.54 83.35C9.05 85.96 7.9 88.76 7.14 91.67C6.37 94.58 5.99 97.57 6 100.58L6.51 247.05C6.53 250.04 6.94 253.01 7.72 255.89C8.5 258.77 9.65 261.54 11.15 264.12C12.64 266.71 14.47 269.09 16.57 271.2C18.68 273.32 21.05 275.15 23.63 276.66L23.74 276.73L72.65 308.13C72.28 306.36 71.74 304.63 71.04 302.97C70.33 301.31 69.47 299.72 68.46 298.23C67.44 296.73 66.28 295.34 65 294.07C63.71 292.8 62.31 291.66 60.8 290.67L28.2 269.08C26.27 267.97 24.48 266.61 22.9 265.03C21.32 263.46 19.95 261.68 18.83 259.76C17.7 257.83 16.84 255.76 16.25 253.61C15.66 251.45 15.36 249.23 15.35 247L14.85 100.53C14.84 98.29 15.13 96.07 15.7 93.91C16.27 91.75 17.12 89.67 18.23 87.73C19.34 85.79 20.7 84 22.27 82.41C23.85 80.82 25.62 79.45 27.55 78.32L130.55 18.32C132.48 17.2 134.55 16.33 136.71 15.75C138.87 15.16 141.09 14.86 143.33 14.85C145.57 14.84 147.79 15.12 149.96 15.69C152.12 16.26 154.2 17.1 156.14 18.21L259.57 77.36C261.51 78.47 263.29 79.83 264.88 81.41C266.47 82.98 267.84 84.75 268.96 86.68C270.09 88.61 270.96 90.68 271.55 92.84C272.14 94.99 272.45 97.22 272.46 99.45L272.96 245.92C272.97 248.15 272.68 250.37 272.11 252.52C271.55 254.68 270.7 256.75 269.6 258.69C268.49 260.62 267.14 262.41 265.58 263.99C264.01 265.58 262.25 266.96 260.33 268.09L225.51 290.71Z" />
			<path id="Layer" class="shp0" d="M59.4 338.48C59.4 334.35 62.75 331 66.88 331L220.92 331C225.05 331 228.4 334.35 228.4 338.48L228.4 344.52C228.4 348.65 225.05 352 220.92 352L66.88 352C62.75 352 59.4 348.65 59.4 344.52L59.4 338.48Z" />
			<path id="Layer" fill-rule="evenodd" class="shp0" d="M220.92 352.5L66.92 352.5C65.87 352.5 64.83 352.29 63.86 351.89C62.89 351.49 62.01 350.9 61.26 350.16C60.52 349.41 59.93 348.53 59.53 347.56C59.13 346.59 58.92 345.55 58.92 344.5L58.92 338.5C58.92 337.45 59.13 336.41 59.53 335.44C59.93 334.47 60.52 333.59 61.26 332.84C62.01 332.1 62.89 331.51 63.86 331.11C64.83 330.71 65.87 330.5 66.92 330.5L220.92 330.5C221.97 330.5 223.01 330.71 223.98 331.11C224.95 331.51 225.83 332.1 226.58 332.84C227.32 333.59 227.91 334.47 228.31 335.44C228.71 336.41 228.92 337.45 228.92 338.5L228.92 344.5C228.92 345.55 228.71 346.59 228.31 347.56C227.91 348.53 227.32 349.41 226.58 350.16C225.83 350.9 224.95 351.49 223.98 351.89C223.01 352.29 221.97 352.5 220.92 352.5ZM66.92 331.5C66 331.5 65.09 331.68 64.24 332.03C63.39 332.38 62.62 332.9 61.97 333.55C61.32 334.2 60.8 334.97 60.45 335.82C60.1 336.67 59.92 337.58 59.92 338.5L59.92 344.5C59.92 345.42 60.1 346.33 60.45 347.18C60.8 348.03 61.32 348.8 61.97 349.45C62.62 350.1 63.39 350.62 64.24 350.97C65.09 351.32 66 351.5 66.92 351.5L220.92 351.5C221.84 351.5 222.75 351.32 223.6 350.97C224.45 350.62 225.22 350.1 225.87 349.45C226.52 348.8 227.04 348.03 227.39 347.18C227.74 346.33 227.92 345.42 227.92 344.5L227.92 338.5C227.92 337.58 227.74 336.67 227.39 335.82C227.04 334.97 226.52 334.2 225.87 333.55C225.22 332.9 224.45 332.38 223.6 332.03C222.75 331.68 221.84 331.5 220.92 331.5L66.92 331.5Z" />
			<path id="Layer" class="shp0" d="M71.16 365.71C71.16 361.4 74.65 357.91 78.96 357.91L208.85 357.91C213.16 357.91 216.65 361.4 216.65 365.71L216.65 372.2C216.65 376.51 213.16 380 208.85 380L78.96 380C74.65 380 71.16 376.51 71.16 372.2L71.16 365.71Z" />
			<path id="Layer" fill-rule="evenodd" class="shp0" d="M79 380.5C77.91 380.5 76.83 380.28 75.83 379.87C74.82 379.45 73.9 378.84 73.13 378.07C72.36 377.3 71.75 376.38 71.33 375.37C70.92 374.37 70.7 373.29 70.7 372.2L70.7 365.71C70.7 364.62 70.92 363.54 71.33 362.54C71.75 361.53 72.36 360.61 73.13 359.84C73.9 359.07 74.82 358.46 75.83 358.04C76.83 357.63 77.91 357.41 79 357.41L208.85 357.41C209.94 357.41 211.02 357.63 212.02 358.04C213.03 358.46 213.95 359.07 214.72 359.84C215.49 360.61 216.1 361.53 216.52 362.54C216.93 363.54 217.15 364.62 217.15 365.71L217.15 372.2C217.15 373.29 216.93 374.37 216.52 375.37C216.1 376.38 215.49 377.3 214.72 378.07C213.95 378.84 213.03 379.45 212.02 379.87C211.02 380.28 209.94 380.5 208.85 380.5L79 380.5ZM79 358.41C78.04 358.41 77.09 358.6 76.21 358.97C75.32 359.33 74.52 359.87 73.84 360.55C73.16 361.23 72.62 362.03 72.26 362.92C71.89 363.8 71.7 364.75 71.7 365.71L71.7 372.2C71.7 373.16 71.89 374.11 72.26 374.99C72.63 375.88 73.16 376.68 73.84 377.36C74.52 378.04 75.32 378.57 76.21 378.94C77.09 379.31 78.04 379.5 79 379.5L208.85 379.5C209.81 379.5 210.76 379.31 211.64 378.94C212.52 378.57 213.33 378.03 214.01 377.36C214.68 376.68 215.22 375.87 215.59 374.99C215.96 374.11 216.15 373.16 216.15 372.2L216.15 365.71C216.15 364.75 215.96 363.8 215.59 362.92C215.22 362.03 214.69 361.23 214.01 360.55C213.33 359.87 212.53 359.34 211.64 358.97C210.76 358.6 209.81 358.41 208.85 358.41L79 358.41Z" />
			<path id="Layer" class="shp0" d="M179.76 226.18L179.76 226.18C179.42 226.18 179.08 226.15 178.74 226.08C178.41 226.01 178.08 225.91 177.77 225.78C177.45 225.65 177.15 225.49 176.87 225.3C176.59 225.1 176.33 224.88 176.09 224.64L144.46 192.58L112.83 224.64C112.59 224.88 112.33 225.1 112.05 225.3C111.77 225.49 111.47 225.65 111.15 225.78C110.84 225.91 110.51 226.01 110.18 226.08C109.84 226.15 109.5 226.18 109.16 226.18L109.16 226.18C108.82 226.18 108.48 226.15 108.15 226.09C107.81 226.02 107.49 225.92 107.17 225.79C106.86 225.66 106.56 225.5 106.28 225.32C105.99 225.13 105.73 224.91 105.49 224.67L71.23 190.43L54 172.74C53.48 172.16 53.2 171.41 53.22 170.63C53.24 169.85 53.57 169.11 54.13 168.57C54.68 168.03 55.43 167.72 56.21 167.72C56.99 167.72 57.74 168.02 58.3 168.56L75.47 186.21L109.09 219.84L140.72 187.77C140.96 187.53 141.22 187.31 141.51 187.11C141.79 186.92 142.09 186.76 142.41 186.63C142.73 186.5 143.05 186.4 143.39 186.33C143.73 186.26 144.07 186.23 144.41 186.23L144.41 186.23C144.75 186.23 145.09 186.26 145.43 186.33C145.77 186.4 146.09 186.5 146.41 186.63C146.73 186.76 147.03 186.92 147.31 187.11C147.6 187.31 147.86 187.53 148.1 187.77L179.73 219.84L213.39 186.18L230.52 168.56C231.07 167.96 231.83 167.61 232.65 167.58C233.46 167.56 234.25 167.86 234.83 168.43C235.41 169 235.74 169.77 235.74 170.59C235.74 171.4 235.4 172.18 234.82 172.74L217.7 190.4L183.43 224.67C183.19 224.91 182.93 225.13 182.64 225.32C182.36 225.5 182.06 225.66 181.75 225.79C181.43 225.92 181.11 226.02 180.77 226.09C180.44 226.15 180.1 226.18 179.76 226.18Z" />
			<path id="Layer" fill-rule="evenodd" class="shp0" d="M179.77 226.68C179.4 226.68 179.03 226.64 178.66 226.57C178.3 226.49 177.94 226.38 177.6 226.24C177.26 226.09 176.93 225.92 176.62 225.71C176.32 225.5 176.03 225.26 175.77 224.99L144.5 193.29L113.18 225C112.92 225.27 112.63 225.51 112.33 225.72C112.02 225.93 111.69 226.1 111.35 226.25C111.01 226.39 110.65 226.5 110.29 226.58C109.92 226.65 109.55 226.69 109.18 226.69C108.81 226.69 108.44 226.65 108.08 226.58C107.71 226.51 107.36 226.4 107.01 226.26C106.67 226.12 106.35 225.94 106.04 225.73C105.73 225.53 105.44 225.29 105.18 225.03L70.88 190.78L53.68 173.09C53.1 172.42 52.8 171.54 52.83 170.65C52.87 169.76 53.25 168.92 53.89 168.3C54.52 167.68 55.37 167.32 56.27 167.3C57.16 167.29 58.02 167.61 58.68 168.21L75.84 185.86L109.11 219.13L140.39 187.42C140.92 186.88 141.55 186.46 142.24 186.17C142.93 185.88 143.68 185.73 144.43 185.73C145.18 185.73 145.93 185.88 146.62 186.17C147.31 186.46 147.94 186.88 148.47 187.42L179.75 219.13L213.05 185.83L230.18 168.21C230.81 167.48 231.72 167.04 232.68 167C233.64 166.96 234.58 167.32 235.28 167.99C235.97 168.67 236.35 169.6 236.33 170.56C236.31 171.53 235.9 172.44 235.18 173.09L218.02 190.74L183.78 225C183.52 225.27 183.23 225.5 182.92 225.71C182.61 225.92 182.29 226.1 181.94 226.24C181.6 226.39 181.24 226.5 180.88 226.57C180.51 226.64 180.14 226.68 179.77 226.68ZM144.45 191.86L176.45 224.29C176.67 224.51 176.9 224.71 177.16 224.88C177.41 225.06 177.68 225.2 177.97 225.32C178.25 225.44 178.55 225.53 178.85 225.59C179.15 225.65 179.46 225.68 179.77 225.68C180.08 225.68 180.38 225.65 180.68 225.59C180.98 225.53 181.28 225.45 181.56 225.33C181.84 225.21 182.11 225.07 182.37 224.89C182.62 224.72 182.86 224.53 183.07 224.31L217.35 190L234.5 172.4C234.97 171.93 235.24 171.28 235.23 170.62C235.23 169.95 234.95 169.31 234.48 168.84C234 168.38 233.35 168.12 232.68 168.13C232.02 168.15 231.38 168.43 230.92 168.91L213.79 186.53L179.79 220.53L147.79 188.1C147.35 187.66 146.84 187.31 146.26 187.07C145.69 186.83 145.08 186.71 144.46 186.71C143.84 186.71 143.23 186.83 142.66 187.07C142.08 187.31 141.57 187.66 141.13 188.1L109.13 220.53L75.13 186.53L58 168.91C57.54 168.44 56.9 168.16 56.24 168.16C55.58 168.15 54.94 168.4 54.46 168.86C53.99 169.32 53.71 169.96 53.71 170.62C53.7 171.28 53.95 171.92 54.41 172.4L71.6 190.08L105.84 224.31C106.27 224.75 106.79 225.1 107.36 225.33C107.93 225.57 108.54 225.69 109.16 225.69C109.78 225.69 110.39 225.57 110.96 225.33C111.53 225.1 112.05 224.75 112.48 224.31L144.45 191.86Z" />
			<path id="Layer" class="shp0" d="M180 226.85C179.8 226.85 179.61 226.83 179.41 226.79C179.22 226.76 179.03 226.7 178.85 226.62C178.66 226.55 178.49 226.45 178.33 226.34C178.16 226.24 178.01 226.11 177.87 225.97L108.8 156.56C108.32 156.08 107.94 155.51 107.68 154.88C107.41 154.25 107.28 153.58 107.28 152.89C107.28 152.21 107.41 151.54 107.68 150.91C107.94 150.28 108.32 149.71 108.8 149.23L140.8 117.5C141.28 117.03 141.85 116.66 142.47 116.41C143.1 116.15 143.76 116.02 144.44 116.02C145.11 116.02 145.77 116.15 146.4 116.41C147.02 116.66 147.59 117.03 148.07 117.5L164.92 133.97C165.52 134.52 165.87 135.29 165.9 136.1C165.92 136.91 165.61 137.7 165.04 138.28C164.47 138.86 163.69 139.19 162.88 139.18C162.07 139.18 161.29 138.85 160.73 138.26L144.46 122.36L113.62 152.94L182.12 221.77C182.54 222.19 182.82 222.73 182.93 223.31C183.05 223.89 182.98 224.49 182.76 225.03C182.53 225.58 182.14 226.05 181.65 226.38C181.16 226.7 180.58 226.88 179.99 226.88L180 226.85Z" />
			<path id="Layer" fill-rule="evenodd" class="shp0" d="M180 227.35C179.77 227.35 179.54 227.33 179.32 227.29C179.09 227.25 178.87 227.19 178.66 227.1C178.45 227.01 178.24 226.91 178.05 226.78C177.86 226.66 177.68 226.51 177.52 226.35L108.44 156.94C107.92 156.41 107.51 155.79 107.23 155.1C106.95 154.42 106.8 153.68 106.8 152.94C106.8 152.2 106.95 151.46 107.23 150.78C107.51 150.09 107.92 149.47 108.44 148.94L140.44 117.22C140.97 116.7 141.59 116.29 142.28 116C142.96 115.72 143.7 115.58 144.44 115.58C145.18 115.58 145.92 115.72 146.6 116C147.29 116.29 147.91 116.7 148.44 117.22L165.29 133.68C166 134.32 166.42 135.22 166.45 136.17C166.48 137.12 166.12 138.05 165.45 138.73C164.79 139.41 163.87 139.79 162.92 139.78C161.96 139.77 161.05 139.38 160.4 138.68L144.47 123L114.34 152.88L182.48 221.35C182.98 221.84 183.32 222.46 183.46 223.15C183.6 223.83 183.53 224.54 183.27 225.19C183 225.83 182.55 226.38 181.96 226.77C181.38 227.15 180.7 227.36 180 227.35ZM143.55 116.6C143.25 116.65 142.96 116.74 142.68 116.86C142.4 116.97 142.13 117.12 141.88 117.28C141.62 117.45 141.39 117.65 141.17 117.86L109.17 149.58C108.74 150.02 108.39 150.53 108.16 151.1C107.93 151.67 107.81 152.28 107.81 152.89C107.81 153.51 107.93 154.12 108.16 154.69C108.39 155.26 108.74 155.77 109.17 156.21L178.25 225.62C178.49 225.85 178.76 226.02 179.06 226.15C179.37 226.27 179.69 226.33 180.01 226.33C180.34 226.33 180.66 226.27 180.97 226.15C181.27 226.02 181.54 225.85 181.78 225.62C182.01 225.39 182.19 225.11 182.32 224.81C182.45 224.51 182.51 224.18 182.51 223.85C182.51 223.53 182.45 223.2 182.32 222.9C182.19 222.6 182.01 222.32 181.78 222.09L112.94 152.91L144.47 121.63L161.1 137.87C161.57 138.35 162.21 138.61 162.88 138.61C163.55 138.61 164.19 138.34 164.66 137.86C165.13 137.38 165.39 136.74 165.38 136.07C165.36 135.4 165.08 134.76 164.6 134.3L147.74 117.83C147.52 117.62 147.29 117.43 147.03 117.27C146.78 117.1 146.51 116.96 146.23 116.85C145.95 116.73 145.66 116.65 145.36 116.59C145.06 116.54 144.76 116.51 144.46 116.51C144.16 116.51 143.85 116.54 143.55 116.6Z" />
			<path id="Layer" fill-rule="evenodd" class="shp0" d="M145 260.37C144.67 260.37 144.33 260.34 144.01 260.28C143.68 260.21 143.36 260.12 143.05 259.99C142.74 259.87 142.44 259.71 142.16 259.53C141.88 259.35 141.62 259.14 141.38 258.91L127.38 245.58C126.78 245.04 126.42 244.27 126.4 243.47C126.37 242.66 126.66 241.87 127.22 241.28C127.78 240.7 128.55 240.36 129.36 240.36C130.17 240.35 130.95 240.67 131.52 241.24L145 254.06L216.4 183.23C216.96 182.64 217.73 182.3 218.55 182.29C219.36 182.28 220.14 182.6 220.72 183.17C221.29 183.75 221.6 184.54 221.58 185.35C221.57 186.17 221.22 186.94 220.62 187.49L148.62 258.89C148.38 259.12 148.12 259.33 147.84 259.52C147.56 259.7 147.26 259.86 146.95 259.98C146.65 260.11 146.32 260.21 146 260.27C145.67 260.34 145.33 260.37 145 260.37Z" />
			<path id="Layer" fill-rule="evenodd" class="shp0" d="M145 260.87C144.63 260.87 144.26 260.84 143.9 260.77C143.54 260.71 143.18 260.6 142.84 260.47C142.5 260.33 142.17 260.16 141.86 259.96C141.55 259.76 141.26 259.53 141 259.27L127 245.95C126.33 245.31 125.94 244.43 125.92 243.5C125.89 242.57 126.24 241.67 126.88 241C127.52 240.33 128.4 239.94 129.33 239.92C130.26 239.89 131.16 240.24 131.83 240.88L145 253.36L216 182.88C216.67 182.24 217.56 181.87 218.49 181.88C219.42 181.89 220.31 182.26 220.96 182.92C221.61 183.58 221.98 184.47 221.97 185.4C221.96 186.33 221.59 187.22 220.93 187.87L148.94 259.27C148.68 259.52 148.39 259.75 148.09 259.95C147.79 260.15 147.46 260.32 147.13 260.45C146.79 260.59 146.44 260.69 146.08 260.76C145.73 260.83 145.36 260.87 145 260.87ZM129.48 240.87C128.98 240.87 128.49 241.02 128.08 241.3C127.66 241.58 127.34 241.97 127.15 242.44C126.97 242.9 126.93 243.41 127.03 243.9C127.14 244.39 127.39 244.84 127.75 245.18L141.75 258.51C142.19 258.93 142.7 259.27 143.26 259.5C143.83 259.72 144.43 259.84 145.03 259.84C145.64 259.84 146.24 259.72 146.81 259.5C147.37 259.27 147.88 258.93 148.32 258.51L220.32 187.12C220.8 186.66 221.08 186.02 221.09 185.35C221.1 184.68 220.84 184.03 220.37 183.56C219.89 183.08 219.25 182.81 218.58 182.82C217.91 182.82 217.27 183.09 216.8 183.57L145 254.76L131.2 241.6C131.09 241.49 130.96 241.39 130.83 241.3C130.69 241.22 130.55 241.15 130.4 241.09C130.25 241.03 130.1 240.98 129.94 240.95C129.79 240.92 129.63 240.91 129.47 240.91L129.48 240.87ZM145.21 255L145.21 255L145.21 255L145.84 254.23L145.84 254.23L145.21 255Z" />
			<path id="Layer" fill-rule="evenodd" class="shp0" d="M170.09 153.25C166.05 153.25 162.4 150.81 160.85 147.08C159.3 143.34 160.16 139.04 163.02 136.18C165.88 133.32 170.18 132.46 173.92 134.01C177.65 135.56 180.09 139.21 180.09 143.25C180.09 144.56 179.83 145.86 179.33 147.08C178.83 148.29 178.09 149.39 177.16 150.32C176.23 151.25 175.13 151.99 173.92 152.49C172.7 152.99 171.4 153.25 170.09 153.25ZM163.97 140.76C162.95 143.23 163.52 146.08 165.41 147.97C167.3 149.86 170.15 150.43 172.62 149.41C175.1 148.38 176.71 145.97 176.71 143.29C176.71 142.42 176.54 141.56 176.2 140.76C175.87 139.96 175.38 139.23 174.77 138.61C174.15 138 173.42 137.51 172.62 137.18C171.82 136.84 170.96 136.67 170.09 136.67C167.41 136.67 165 138.28 163.97 140.76Z" />
			<path id="Layer" fill-rule="evenodd" class="shp0" d="M170.09 153.75C165.86 153.75 162.05 151.2 160.43 147.29C158.81 143.38 159.7 138.89 162.69 135.89C165.69 132.9 170.18 132.01 174.09 133.63C178 135.25 180.55 139.06 180.55 143.29C180.55 144.66 180.28 146.02 179.75 147.29C179.22 148.56 178.45 149.71 177.48 150.68C176.51 151.65 175.36 152.42 174.09 152.95C172.82 153.48 171.46 153.75 170.09 153.75ZM161.35 139.67C159.89 143.2 160.7 147.27 163.4 149.98C166.11 152.68 170.18 153.49 173.71 152.03C177.25 150.57 179.55 147.12 179.55 143.29C179.55 142.05 179.3 140.82 178.83 139.67C178.35 138.52 177.65 137.48 176.78 136.6C175.9 135.73 174.86 135.03 173.71 134.55C172.56 134.08 171.33 133.83 170.09 133.83C166.26 133.83 162.81 136.13 161.35 139.67ZM163.51 146.01C162.41 143.35 163.02 140.29 165.06 138.26C167.09 136.22 170.15 135.61 172.81 136.71C175.48 137.81 177.21 140.41 177.21 143.29C177.21 144.22 177.02 145.15 176.67 146.01C176.31 146.88 175.78 147.66 175.12 148.32C174.46 148.98 173.68 149.51 172.81 149.87C171.95 150.22 171.02 150.41 170.09 150.41C167.21 150.41 164.61 148.68 163.51 146.01ZM164.44 140.95C163.49 143.23 164.01 145.87 165.76 147.62C167.51 149.37 170.15 149.89 172.43 148.94C174.72 148 176.21 145.77 176.21 143.29C176.21 142.49 176.05 141.69 175.74 140.95C175.44 140.21 174.99 139.53 174.42 138.96C173.85 138.39 173.17 137.94 172.43 137.64C171.69 137.33 170.89 137.17 170.09 137.17C167.61 137.17 165.38 138.66 164.44 140.95Z" />
			<path id="Layer" class="shp0" d="M124.47 244.32C120.7 244.32 117.66 241.28 117.66 237.51C117.66 233.74 120.7 230.7 124.47 230.7C128.24 230.7 131.28 233.74 131.28 237.51C131.28 241.28 128.24 244.32 124.47 244.32Z" />
			<path id="Layer" fill-rule="evenodd" class="shp0" d="M117.72 240.31C116.58 237.58 117.21 234.43 119.3 232.34C121.39 230.25 124.54 229.62 127.27 230.76C130 231.89 131.78 234.55 131.78 237.51C131.78 238.47 131.59 239.42 131.22 240.31C130.85 241.19 130.31 242 129.64 242.68C128.96 243.35 128.15 243.89 127.27 244.26C126.38 244.63 125.43 244.82 124.47 244.82C121.51 244.82 118.85 243.04 117.72 240.31ZM118.64 235.1C117.66 237.45 118.2 240.17 120.01 241.97C121.81 243.78 124.53 244.32 126.88 243.34C129.24 242.36 130.78 240.06 130.78 237.51C130.78 236.68 130.61 235.86 130.3 235.1C129.98 234.33 129.51 233.64 128.93 233.05C128.34 232.47 127.65 232 126.88 231.68C126.12 231.37 125.3 231.2 124.47 231.2C121.92 231.2 119.62 232.74 118.64 235.1Z" />
			<path id="Layer" fill-rule="evenodd" class="shp0" d="M116.33 240.88C114.97 237.59 115.72 233.8 118.24 231.28C120.76 228.76 124.55 228.01 127.84 229.37C131.13 230.73 133.28 233.95 133.28 237.51C133.28 238.67 133.05 239.81 132.61 240.88C132.16 241.95 131.51 242.92 130.7 243.74C129.88 244.55 128.91 245.2 127.84 245.65C126.77 246.09 125.63 246.32 124.47 246.32C120.91 246.32 117.69 244.17 116.33 240.88ZM120.03 235.67C119.28 237.47 119.69 239.54 121.07 240.91C122.44 242.29 124.51 242.7 126.31 241.95C128.11 241.21 129.28 239.46 129.28 237.51C129.28 236.88 129.15 236.25 128.91 235.67C128.67 235.09 128.31 234.56 127.87 234.11C127.42 233.67 126.89 233.31 126.31 233.07C125.73 232.83 125.1 232.7 124.47 232.7C122.52 232.7 120.77 233.87 120.03 235.67Z" />
			<path id="Layer" fill-rule="evenodd" class="shp0" d="M115.87 241.07C114.43 237.59 115.22 233.59 117.89 230.93C120.55 228.26 124.55 227.47 128.03 228.91C131.51 230.35 133.78 233.74 133.78 237.51C133.78 238.73 133.53 239.94 133.07 241.07C132.6 242.2 131.91 243.22 131.05 244.09C130.18 244.95 129.16 245.64 128.03 246.11C126.9 246.57 125.69 246.82 124.47 246.82C120.7 246.82 117.31 244.55 115.87 241.07ZM116.79 234.33C115.51 237.44 116.22 241.01 118.59 243.39C120.97 245.76 124.54 246.47 127.65 245.19C130.76 243.9 132.78 240.87 132.78 237.51C132.78 236.42 132.56 235.34 132.14 234.33C131.73 233.32 131.11 232.41 130.34 231.64C129.57 230.87 128.66 230.25 127.65 229.84C126.64 229.42 125.56 229.2 124.47 229.2C121.11 229.2 118.08 231.22 116.79 234.33ZM124.47 242.82C122.32 242.82 120.39 241.53 119.56 239.54C118.74 237.56 119.2 235.27 120.72 233.76C122.23 232.24 124.52 231.78 126.5 232.6C128.49 233.43 129.78 235.36 129.78 237.51C129.78 238.21 129.64 238.9 129.38 239.54C129.11 240.19 128.72 240.77 128.22 241.26C127.73 241.76 127.15 242.15 126.5 242.42C125.86 242.68 125.17 242.82 124.47 242.82ZM120.49 235.86C119.82 237.47 120.19 239.32 121.42 240.56C122.66 241.79 124.51 242.16 126.12 241.49C127.73 240.82 128.78 239.25 128.78 237.51C128.78 236.94 128.67 236.38 128.45 235.86C128.23 235.34 127.91 234.87 127.51 234.47C127.11 234.07 126.64 233.75 126.12 233.53C125.6 233.31 125.04 233.2 124.47 233.2C122.73 233.2 121.16 234.25 120.49 235.86Z" />
			<path id="Layer" fill-rule="evenodd" class="shp0" d="M239.52 173.32C235.48 173.32 231.83 170.88 230.28 167.15C228.73 163.41 229.59 159.11 232.45 156.25C235.31 153.39 239.61 152.53 243.35 154.08C247.08 155.63 249.52 159.28 249.52 163.32C249.52 164.63 249.26 165.93 248.76 167.15C248.26 168.36 247.52 169.46 246.59 170.39C245.66 171.32 244.56 172.06 243.35 172.56C242.13 173.06 240.83 173.32 239.52 173.32ZM233.4 160.83C232.38 163.3 232.95 166.15 234.84 168.04C236.73 169.93 239.58 170.5 242.05 169.48C244.53 168.45 246.14 166.04 246.14 163.36C246.14 162.49 245.97 161.63 245.63 160.83C245.3 160.03 244.81 159.3 244.2 158.68C243.58 158.07 242.85 157.58 242.05 157.25C241.25 156.91 240.39 156.74 239.52 156.74C236.84 156.74 234.43 158.35 233.4 160.83Z" />
			<path id="Layer" fill-rule="evenodd" class="shp0" d="M229.87 167.35C228.26 163.44 229.16 158.94 232.15 155.96C235.14 152.97 239.64 152.08 243.55 153.7C247.45 155.32 250 159.13 250 163.36C250 164.73 249.73 166.1 249.2 167.37C248.67 168.64 247.9 169.79 246.93 170.76C245.95 171.73 244.8 172.5 243.53 173.03C242.26 173.55 240.89 173.82 239.52 173.82C235.29 173.81 231.48 171.26 229.87 167.35ZM230.78 159.74C229.32 163.27 230.13 167.34 232.83 170.05C235.54 172.75 239.61 173.56 243.14 172.1C246.68 170.64 248.98 167.19 248.98 163.36C248.98 162.12 248.73 160.89 248.26 159.74C247.78 158.59 247.08 157.55 246.21 156.67C245.33 155.8 244.29 155.1 243.14 154.62C241.99 154.15 240.76 153.9 239.52 153.9C235.69 153.9 232.24 156.2 230.78 159.74ZM232.94 166.08C231.84 163.42 232.45 160.36 234.49 158.33C236.52 156.29 239.58 155.68 242.24 156.78C244.91 157.88 246.64 160.48 246.64 163.36C246.64 164.29 246.45 165.22 246.1 166.08C245.74 166.95 245.21 167.73 244.55 168.39C243.89 169.05 243.11 169.58 242.24 169.94C241.38 170.29 240.45 170.48 239.52 170.48C236.64 170.48 234.04 168.75 232.94 166.08ZM233.87 161.02C232.92 163.3 233.44 165.94 235.19 167.69C236.94 169.44 239.58 169.96 241.86 169.01C244.15 168.07 245.64 165.84 245.64 163.36C245.64 162.56 245.48 161.76 245.17 161.02C244.86 160.28 244.41 159.6 243.84 159.04C243.28 158.47 242.6 158.02 241.86 157.71C241.12 157.4 240.32 157.24 239.52 157.24C237.04 157.24 234.81 158.73 233.87 161.02Z" />
			<path id="Layer" fill-rule="evenodd" class="shp0" d="M51.29 172.43C47.25 172.43 43.6 169.99 42.05 166.26C40.5 162.52 41.36 158.22 44.22 155.36C47.08 152.5 51.38 151.64 55.12 153.19C58.85 154.74 61.29 158.39 61.29 162.43C61.29 163.74 61.03 165.04 60.53 166.26C60.03 167.47 59.29 168.57 58.36 169.5C57.43 170.43 56.33 171.17 55.12 171.67C53.9 172.17 52.6 172.43 51.29 172.43ZM45.17 159.94C44.15 162.41 44.72 165.26 46.61 167.15C48.5 169.04 51.35 169.61 53.82 168.59C56.3 167.56 57.91 165.15 57.91 162.47C57.91 161.6 57.74 160.74 57.4 159.94C57.07 159.14 56.58 158.41 55.97 157.79C55.35 157.18 54.62 156.69 53.82 156.36C53.02 156.02 52.16 155.85 51.29 155.85C48.61 155.85 46.2 157.46 45.17 159.94Z" />
			<path id="Layer" fill-rule="evenodd" class="shp0" d="M41.62 166.48C40 162.57 40.89 158.07 43.88 155.08C46.87 152.08 51.37 151.19 55.28 152.81C59.19 154.42 61.74 158.24 61.74 162.47C61.74 163.84 61.47 165.2 60.94 166.47C60.42 167.74 59.65 168.89 58.68 169.86C57.71 170.83 56.56 171.6 55.29 172.13C54.02 172.65 52.66 172.93 51.29 172.93C47.06 172.93 43.24 170.39 41.62 166.48ZM51.29 153.01C47.46 153.01 44.01 155.31 42.54 158.84C41.08 162.38 41.88 166.45 44.59 169.16C47.29 171.86 51.36 172.67 54.9 171.21C58.43 169.75 60.74 166.3 60.74 162.47C60.74 161.23 60.5 160 60.02 158.85C59.55 157.7 58.85 156.66 57.97 155.78C57.1 154.9 56.05 154.2 54.91 153.73C53.76 153.25 52.53 153 51.29 153L51.29 153.01ZM44.71 165.19C43.61 162.53 44.22 159.47 46.26 157.44C48.29 155.4 51.35 154.79 54.01 155.89C56.68 156.99 58.41 159.59 58.41 162.47C58.41 163.4 58.22 164.33 57.87 165.19C57.51 166.06 56.98 166.84 56.32 167.5C55.66 168.16 54.88 168.69 54.01 169.05C53.15 169.4 52.22 169.59 51.29 169.59C48.41 169.59 45.81 167.86 44.71 165.19ZM45.64 160.13C44.69 162.41 45.21 165.05 46.96 166.8C48.71 168.55 51.35 169.07 53.63 168.12C55.92 167.18 57.41 164.95 57.41 162.47C57.41 161.67 57.25 160.87 56.94 160.13C56.63 159.39 56.18 158.71 55.61 158.15C55.05 157.58 54.37 157.13 53.63 156.82C52.89 156.51 52.09 156.35 51.29 156.35C48.81 156.35 46.58 157.84 45.64 160.13Z" />
			<path id="Layer" class="shp0" d="M145.4 332C145.01 332 144.62 331.92 144.25 331.77C143.89 331.62 143.56 331.4 143.28 331.12C143 330.84 142.78 330.51 142.63 330.15C142.48 329.78 142.4 329.39 142.4 329L142.4 257C142.4 256.2 142.72 255.44 143.28 254.88C143.84 254.32 144.6 254 145.4 254C146.2 254 146.96 254.32 147.52 254.88C148.08 255.44 148.4 256.2 148.4 257L148.4 329C148.4 329.39 148.32 329.78 148.17 330.15C148.02 330.51 147.8 330.84 147.52 331.12C147.24 331.4 146.91 331.62 146.55 331.77C146.18 331.92 145.79 332 145.4 332Z" />
			<path id="Layer" fill-rule="evenodd" class="shp0" d="M145.4 332.5C144.94 332.5 144.49 332.41 144.06 332.23C143.64 332.06 143.25 331.8 142.93 331.47C142.6 331.15 142.34 330.76 142.17 330.34C141.99 329.91 141.9 329.46 141.9 329L141.9 257C141.9 256.07 142.27 255.18 142.93 254.53C143.58 253.87 144.47 253.5 145.4 253.5C146.33 253.5 147.22 253.87 147.87 254.53C148.53 255.18 148.9 256.07 148.9 257L148.9 329C148.9 329.46 148.81 329.91 148.63 330.34C148.46 330.76 148.2 331.15 147.87 331.47C147.55 331.8 147.16 332.06 146.74 332.23C146.31 332.41 145.86 332.5 145.4 332.5ZM145.4 254.5C145.07 254.5 144.75 254.57 144.44 254.69C144.14 254.82 143.87 255 143.64 255.24C143.4 255.47 143.22 255.74 143.09 256.04C142.97 256.35 142.9 256.67 142.9 257L142.9 329C142.9 329.66 143.16 330.3 143.63 330.77C144.1 331.24 144.74 331.5 145.4 331.5C146.06 331.5 146.7 331.24 147.17 330.77C147.64 330.3 147.9 329.66 147.9 329L147.9 257C147.9 256.67 147.84 256.35 147.71 256.04C147.58 255.74 147.4 255.46 147.17 255.23C146.94 255 146.66 254.82 146.36 254.69C146.05 254.56 145.73 254.5 145.4 254.5Z" />
			<path id="Layer" fill-rule="evenodd" class="shp0" d="M334.16 230L353.6 219.63C364 238.14 379.2 254 410.3 254C435.9 254 455.99 239.75 455.99 216.42C455.99 194.06 442.06 182.72 414.52 170.42L397.02 162.32C365.59 148.06 348.42 132.84 348.42 102.06C348.42 70.3 373.37 49.24 406.42 49.24C435.9 49.24 454.37 62.85 466.03 82.29L447.24 94C438.82 80.39 427.15 70 406.42 70C384.71 70 371.42 82.64 371.42 101.43C371.42 120.87 381.79 129.62 406.42 140.96L423.91 149.06C460.52 165.26 479.32 183.4 479.32 216.45C479.32 252.74 450.48 274.77 410.95 274.77C368.83 274.75 345.83 253.37 334.16 230ZM447.24 94L466 82.29L447.24 94Z" />
			<path id="Layer" class="shp0" d="M594.61 73.65C598.54 74.17 602.44 74.92 606.28 75.89C610.12 76.87 613.91 78.07 617.61 79.49C621.31 80.91 624.92 82.55 628.43 84.39C631.94 86.24 635.34 88.29 638.61 90.53C646.09 95.63 658.32 107.64 663.7 115.28C665.06 117.34 666.36 119.43 667.6 121.57C668.84 123.7 670.02 125.87 671.14 128.07C672.26 130.27 673.31 132.5 674.3 134.76C675.29 137.02 676.21 139.31 677.07 141.62C679.47 148.88 681.04 156.39 681.75 164C682.46 171.61 682.31 179.28 681.3 186.86C680.29 194.44 678.42 201.88 675.74 209.04C673.05 216.2 669.57 223.03 665.35 229.41C660.93 236.15 659.35 238.02 653.17 244.41C638.44 259.41 621.22 268.6 600.1 272.9C594.49 274.04 591.88 274.21 581.41 274.21C570.94 274.21 568.32 274.04 562.71 272.9C537.23 267.75 516.89 255.12 500.58 234.16C492.82 224.31 488.58 216.43 485.23 205.96C482.06 195.96 481.44 191.85 481.49 181.03C481.49 171.97 481.66 170.73 483.02 166.14C488.8 147.22 502.34 134.59 520.75 130.91C526.58 129.72 538.47 130 543.68 131.42C553.54 134.14 561.02 140.65 564.36 149.49C564.92 151.02 564.81 150.96 562.04 148.49C560.05 146.7 557.85 145.15 555.49 143.88C553.13 142.61 550.63 141.63 548.03 140.96C545.44 140.29 542.77 139.93 540.09 139.89C537.42 139.85 534.74 140.13 532.13 140.73C519.5 143.73 508.57 155.06 504.89 168.94C504.44 170.82 504.11 172.72 503.89 174.64C503.68 176.56 503.58 178.5 503.61 180.43C503.63 182.36 503.77 184.29 504.03 186.2C504.3 188.12 504.67 190.01 505.17 191.88C511.34 214.36 526.07 231.58 548.17 242.18C551.93 244.04 555.83 245.58 559.84 246.8C563.85 248.01 567.96 248.89 572.11 249.42C576.27 249.95 580.46 250.14 584.65 249.98C588.84 249.82 593.01 249.31 597.11 248.46C626.73 242.4 649.11 221.62 656.46 193.46C657 191.09 657.43 188.7 657.75 186.29C658.07 183.89 658.28 181.46 658.37 179.04C658.47 176.61 658.45 174.18 658.32 171.76C658.19 169.33 657.95 166.91 657.6 164.51C653.86 141.91 640.38 123.51 617.5 109.68C615.24 108.34 612.92 107.09 610.55 105.94C608.19 104.79 605.78 103.74 603.32 102.78C600.87 101.83 598.38 100.98 595.86 100.23C593.34 99.48 590.78 98.84 588.21 98.3C547.15 89.92 506.21 108.89 485.47 145.88C483.03 150.13 483.2 148.94 486.09 140.61C489.18 131.69 493.51 123.25 498.94 115.54C504.38 107.83 510.87 100.91 518.23 95C525.59 89.09 533.74 84.24 542.44 80.59C551.14 76.95 560.32 74.54 569.69 73.44C571.76 73.25 573.84 73.1 575.92 73.01C577.99 72.93 580.07 72.89 582.16 72.91C584.24 72.93 586.32 73 588.39 73.12C590.47 73.24 592.54 73.42 594.61 73.65L594.61 73.65Z" />
			<path id="Layer" class="shp0" d="M696.4 75L717.28 75L717.28 253.6L793 253.6L810.4 272.16L696.4 272.16L696.4 75Z" />
			<path id="Layer" class="shp0" d="M760.49 75L783.11 75L837.34 208.69C841.4 218.55 845.75 235.37 845.75 235.37C845.75 235.37 850.1 218.55 854.16 208.69L878.46 148.45L847.78 75L870.4 75L889.3 121.6L908.1 75L929.27 75L899.61 147L924.61 208.68C928.67 218.54 933.02 235.36 933.02 235.36C933.02 235.36 937.37 218.54 941.43 208.68L995.39 75L1016.56 75L934.49 274.19L931 274.19L888.8 173.19L847.19 274.19L843.71 274.19L760.49 75Z" />
			<path id="Layer" fill-rule="evenodd" class="shp0" d="M1046.14 72.93L1049.62 72.93L1133.13 272.16L1111.13 272.16L1097.79 239.1L998 239.1L985 272.16L964.36 272.16L1046.14 72.93ZM1097.76 239.1L1090.22 221.1L1055.42 133.52C1051.65 124.24 1047.88 110.03 1047.88 110.03C1047.88 110.03 1043.82 124.24 1040.05 133.52L1005.25 221.1L1072.82 221.1L1097.76 239.1Z" />
			<path id="Layer" class="shp0" d="M1200.12 210.39L1125.6 75L1149.09 75L1202.73 173C1207.08 180.54 1211.14 193 1211.14 193C1211.75 191.3 1212.38 189.6 1213.04 187.92C1213.7 186.23 1214.37 184.55 1215.08 182.89C1215.78 181.22 1216.5 179.56 1217.25 177.91C1217.99 176.27 1218.76 174.63 1219.55 173L1272.91 75L1294.66 75L1221.58 209.56L1221.58 272.2L1200.12 289.6L1200.12 210.39Z" />
			<path id="Layer" class="shp0" d="M366.77 354.31C366.02 354.08 365.29 353.81 364.57 353.49C363.85 353.17 363.16 352.81 362.48 352.41C361.81 352.01 361.16 351.57 360.54 351.09C359.92 350.61 359.33 350.1 358.77 349.55L360.86 345.45C361.38 345.94 361.92 346.41 362.49 346.85C363.05 347.28 363.65 347.69 364.26 348.06C364.87 348.43 365.5 348.77 366.14 349.07C366.79 349.38 367.45 349.65 368.13 349.88C368.88 350.16 369.63 350.41 370.4 350.62C371.17 350.83 371.95 351.01 372.73 351.15C373.51 351.29 374.3 351.4 375.09 351.47C375.89 351.54 376.68 351.57 377.48 351.57C381.99 351.57 385.37 350.74 387.63 349.09C388.15 348.74 388.63 348.32 389.06 347.85C389.48 347.37 389.84 346.85 390.13 346.29C390.43 345.73 390.65 345.14 390.8 344.52C390.95 343.9 391.02 343.27 391.01 342.64C391.03 342.2 391.01 341.76 390.94 341.32C390.87 340.88 390.75 340.45 390.6 340.04C390.44 339.63 390.24 339.23 390 338.86C389.76 338.48 389.49 338.14 389.18 337.82C388.86 337.51 388.52 337.22 388.17 336.95C387.82 336.68 387.46 336.42 387.08 336.19C386.7 335.96 386.31 335.75 385.91 335.56C385.51 335.37 385.1 335.2 384.68 335.05C384.07 334.84 383.46 334.64 382.85 334.44C382.24 334.25 381.62 334.07 381 333.89C380.39 333.71 379.77 333.54 379.14 333.38C378.52 333.22 377.9 333.06 377.27 332.92C376.5 332.74 375.73 332.54 374.97 332.33C374.21 332.12 373.45 331.91 372.69 331.67C371.94 331.44 371.18 331.2 370.43 330.95C369.69 330.69 368.94 330.43 368.2 330.15C367.64 329.93 367.1 329.69 366.58 329.4C366.05 329.12 365.54 328.81 365.06 328.47C364.57 328.12 364.1 327.75 363.66 327.35C363.22 326.95 362.8 326.53 362.41 326.08C361.99 325.56 361.62 325.01 361.3 324.43C360.98 323.84 360.72 323.23 360.51 322.6C360.31 321.97 360.16 321.32 360.07 320.66C359.99 320 359.96 319.33 360 318.67C359.99 318.06 360.03 317.45 360.11 316.84C360.2 316.24 360.32 315.64 360.49 315.05C360.66 314.46 360.87 313.89 361.12 313.33C361.38 312.77 361.67 312.23 362 311.72C362.38 311.16 362.8 310.64 363.26 310.14C363.71 309.65 364.2 309.19 364.73 308.76C365.25 308.34 365.8 307.96 366.38 307.62C366.96 307.27 367.57 306.97 368.19 306.72C369.01 306.39 369.84 306.1 370.69 305.85C371.54 305.6 372.4 305.4 373.27 305.24C374.14 305.09 375.02 304.97 375.9 304.91C376.78 304.84 377.67 304.82 378.55 304.85C379.26 304.85 379.98 304.87 380.69 304.92C381.4 304.97 382.11 305.05 382.82 305.15C383.53 305.25 384.23 305.37 384.93 305.52C385.63 305.67 386.32 305.84 387.01 306.04C387.65 306.21 388.27 306.41 388.89 306.64C389.51 306.86 390.12 307.11 390.72 307.39C391.32 307.66 391.91 307.96 392.49 308.28C393.06 308.61 393.62 308.95 394.17 309.32L392.37 313.56C391.85 313.22 391.32 312.89 390.77 312.59C390.23 312.29 389.67 312 389.1 311.74C388.54 311.48 387.96 311.24 387.38 311.02C386.79 310.8 386.2 310.6 385.6 310.43C385.03 310.27 384.46 310.12 383.88 310C383.3 309.87 382.72 309.77 382.13 309.69C381.55 309.6 380.96 309.54 380.37 309.5C379.78 309.45 379.19 309.43 378.6 309.43C374.19 309.43 370.85 310.28 368.6 311.98C368.08 312.35 367.6 312.78 367.18 313.27C366.76 313.75 366.4 314.29 366.11 314.86C365.82 315.43 365.6 316.04 365.45 316.66C365.31 317.29 365.24 317.93 365.25 318.57C365.23 319.01 365.25 319.46 365.32 319.9C365.39 320.34 365.51 320.77 365.66 321.19C365.82 321.61 366.02 322 366.26 322.38C366.5 322.76 366.77 323.11 367.08 323.43C367.4 323.75 367.75 324.05 368.11 324.32C368.46 324.6 368.84 324.86 369.22 325.1C369.61 325.33 370.01 325.55 370.43 325.74C370.84 325.93 371.26 326.1 371.69 326.24C373.54 326.91 376.02 327.61 379.14 328.36C379.9 328.54 380.66 328.73 381.42 328.93C382.18 329.14 382.93 329.35 383.68 329.57C384.43 329.8 385.18 330.04 385.92 330.28C386.66 330.53 387.4 330.79 388.14 331.06C388.69 331.27 389.23 331.51 389.76 331.79C390.28 332.06 390.79 332.37 391.28 332.71C391.77 333.05 392.23 333.41 392.68 333.8C393.12 334.2 393.54 334.62 393.93 335.06C394.34 335.57 394.71 336.11 395.02 336.69C395.34 337.26 395.6 337.87 395.8 338.49C396 339.11 396.15 339.75 396.23 340.4C396.32 341.05 396.34 341.71 396.31 342.36C396.32 342.97 396.27 343.59 396.19 344.19C396.1 344.8 395.97 345.4 395.8 345.99C395.62 346.58 395.41 347.15 395.15 347.71C394.89 348.26 394.59 348.8 394.25 349.31C393.87 349.87 393.44 350.4 392.98 350.9C392.51 351.4 392.01 351.86 391.48 352.28C390.95 352.7 390.38 353.09 389.8 353.43C389.21 353.77 388.59 354.06 387.96 354.31C387.13 354.64 386.29 354.92 385.43 355.16C384.58 355.41 383.71 355.61 382.83 355.76C381.96 355.91 381.07 356.02 380.19 356.09C379.3 356.15 378.41 356.17 377.52 356.15C376.61 356.15 375.69 356.11 374.78 356.03C373.87 355.96 372.97 355.84 372.07 355.69C371.17 355.53 370.27 355.34 369.39 355.11C368.51 354.88 367.63 354.61 366.77 354.31L366.77 354.31Z" />
			<path id="Layer" fill-rule="evenodd" class="shp0" d="M439.14 352.2C438.49 351.71 437.86 351.17 437.28 350.59C436.7 350 436.16 349.38 435.66 348.73C435.16 348.07 434.7 347.39 434.3 346.67C433.48 345.15 432.84 343.54 432.42 341.86C431.99 340.18 431.78 338.46 431.78 336.74C431.78 335.01 431.99 333.29 432.42 331.61C432.84 329.93 433.48 328.32 434.3 326.8C434.71 326.09 435.16 325.4 435.66 324.75C436.16 324.1 436.7 323.48 437.28 322.9C437.87 322.33 438.49 321.79 439.15 321.3C439.8 320.81 440.49 320.36 441.21 319.96C442.72 319.16 444.33 318.54 445.99 318.13C447.65 317.71 449.35 317.5 451.06 317.5C452.78 317.5 454.48 317.71 456.14 318.13C457.8 318.54 459.41 319.16 460.92 319.96C461.64 320.36 462.33 320.8 462.98 321.29C463.64 321.79 464.26 322.32 464.84 322.9C465.42 323.48 465.96 324.1 466.45 324.75C466.95 325.4 467.4 326.09 467.8 326.8C468.61 328.32 469.23 329.94 469.65 331.62C470.07 333.29 470.28 335.01 470.28 336.74C470.28 338.46 470.07 340.18 469.65 341.85C469.23 343.53 468.61 345.15 467.8 346.67C467.4 347.39 466.95 348.08 466.45 348.73C465.96 349.39 465.42 350.01 464.84 350.59C464.26 351.17 463.64 351.71 462.98 352.2C462.33 352.7 461.64 353.15 460.92 353.55C459.41 354.36 457.81 354.98 456.15 355.4C454.48 355.82 452.78 356.03 451.06 356.03C449.35 356.03 447.65 355.82 445.98 355.4C444.32 354.98 442.72 354.36 441.21 353.55C440.49 353.15 439.8 352.7 439.14 352.2ZM458.3 349.66C458.83 349.36 459.34 349.02 459.82 348.64C460.3 348.26 460.75 347.85 461.18 347.41C461.6 346.97 461.99 346.5 462.35 346C462.7 345.5 463.02 344.98 463.3 344.44C463.89 343.25 464.34 341.99 464.64 340.69C464.95 339.39 465.1 338.07 465.1 336.74C465.1 335.4 464.95 334.08 464.64 332.78C464.34 331.48 463.89 330.22 463.3 329.03C463.02 328.49 462.7 327.97 462.34 327.47C461.99 326.97 461.6 326.5 461.17 326.06C460.75 325.62 460.3 325.21 459.82 324.83C459.34 324.46 458.83 324.12 458.3 323.81C457.19 323.21 456.02 322.75 454.8 322.44C453.58 322.14 452.32 321.98 451.06 321.98C449.81 321.98 448.55 322.14 447.33 322.44C446.11 322.75 444.94 323.21 443.83 323.81C443.3 324.12 442.8 324.46 442.32 324.84C441.84 325.22 441.39 325.63 440.96 326.07C440.54 326.51 440.15 326.98 439.79 327.47C439.44 327.97 439.11 328.49 438.83 329.03C438.23 330.22 437.77 331.48 437.46 332.77C437.15 334.07 436.99 335.4 436.99 336.74C436.99 338.07 437.15 339.4 437.46 340.7C437.77 341.99 438.23 343.25 438.83 344.44C439.11 344.98 439.43 345.5 439.79 346C440.15 346.49 440.54 346.96 440.96 347.4C441.38 347.85 441.84 348.26 442.32 348.63C442.8 349.01 443.3 349.35 443.83 349.66C444.94 350.26 446.11 350.72 447.33 351.03C448.55 351.34 449.81 351.5 451.06 351.5C452.32 351.5 453.58 351.34 454.8 351.03C456.02 350.72 457.19 350.26 458.3 349.66Z" />
			<path id="Layer" class="shp0" d="M517 308C516.7 308.37 516.43 308.77 516.2 309.19C515.97 309.61 515.78 310.05 515.64 310.5C515.5 310.96 515.4 311.43 515.34 311.9C515.28 312.37 515.27 312.85 515.31 313.33L515.31 317.79L527 317.79L527 322.11L515.47 322.11L515.47 355.66L510.36 355.66L510.36 322.12L503.6 322.12L503.6 317.8L510.36 317.8L510.36 313.12C510.32 312.37 510.36 311.62 510.47 310.88C510.58 310.14 510.77 309.42 511.02 308.71C511.28 308.01 511.61 307.34 512 306.7C512.39 306.06 512.85 305.47 513.36 304.92C515.36 302.92 518.18 301.92 521.81 301.92C522.16 301.92 522.52 301.93 522.87 301.96C523.22 301.98 523.57 302.02 523.92 302.07C524.27 302.12 524.62 302.19 524.96 302.26C525.31 302.34 525.65 302.43 525.99 302.53C526.3 302.62 526.6 302.72 526.9 302.84C527.2 302.96 527.49 303.09 527.77 303.24C528.05 303.39 528.33 303.55 528.6 303.73C528.86 303.91 529.12 304.1 529.37 304.3L527.64 308.11C527.25 307.79 526.83 307.51 526.39 307.27C525.95 307.03 525.48 306.83 525 306.67C524.53 306.51 524.04 306.39 523.54 306.32C523.04 306.25 522.53 306.22 522.03 306.24C521.57 306.2 521.11 306.21 520.66 306.27C520.21 306.33 519.76 306.43 519.33 306.58C518.89 306.73 518.48 306.93 518.09 307.17C517.7 307.41 517.33 307.69 517 308Z" />
			<path id="Layer" class="shp0" d="M582.61 353.37C582.35 353.6 582.08 353.81 581.8 354.01C581.53 354.21 581.24 354.39 580.94 354.56C580.64 354.73 580.33 354.88 580.01 355.02C579.7 355.15 579.38 355.27 579.05 355.37C578.69 355.48 578.33 355.58 577.97 355.67C577.6 355.76 577.23 355.83 576.86 355.89C576.49 355.94 576.12 355.98 575.74 356.01C575.37 356.04 575 356.05 574.62 356.05C571.07 356.05 568.34 355.1 566.42 353.17C564.5 351.24 563.54 348.54 563.54 345.04L563.54 322.14L556.78 322.14L556.78 317.8L563.54 317.8L563.54 309.52L568.65 309.52L568.65 317.8L580.16 317.8L580.16 322.12L568.65 322.12L568.65 344.73C568.62 345.19 568.63 345.66 568.69 346.12C568.74 346.58 568.84 347.03 568.99 347.47C569.13 347.91 569.32 348.34 569.55 348.74C569.77 349.15 570.04 349.53 570.34 349.88C570.66 350.19 571.01 350.46 571.39 350.69C571.77 350.93 572.17 351.12 572.58 351.27C573 351.42 573.43 351.53 573.87 351.59C574.31 351.65 574.76 351.67 575.2 351.64C575.46 351.64 575.72 351.63 575.98 351.61C576.24 351.59 576.49 351.56 576.75 351.52C577.01 351.48 577.26 351.42 577.51 351.36C577.77 351.3 578.01 351.22 578.26 351.14C578.49 351.06 578.72 350.97 578.95 350.87C579.17 350.77 579.39 350.66 579.6 350.54C579.82 350.42 580.03 350.29 580.23 350.15C580.43 350.01 580.62 349.86 580.81 349.7L582.61 353.37Z" />
			<path id="Layer" class="shp0" d="M675.51 317.8L661.19 355.67L656.37 355.67L644.37 324.67L632.43 355.67L627.61 355.67L613.41 317.8L618.3 317.8L630.18 350L642.34 317.81L646.73 317.81L658.81 350L670.81 317.81L675.51 317.8Z" />
			<path id="Layer" fill-rule="evenodd" class="shp0" d="M735.45 321.22C738.09 323.7 739.45 327.35 739.45 332.22L739.45 355.69L734.56 355.69L734.56 349.79C734.26 350.29 733.93 350.77 733.56 351.22C733.2 351.67 732.8 352.09 732.37 352.48C731.94 352.87 731.48 353.22 731 353.55C730.51 353.87 730.01 354.15 729.48 354.4C728.86 354.69 728.22 354.94 727.57 355.16C726.91 355.37 726.25 355.55 725.58 355.69C724.9 355.83 724.22 355.93 723.54 355.99C722.85 356.05 722.17 356.07 721.48 356.05C717.26 356.05 713.9 355.05 711.41 353.05C710.26 352.09 709.33 350.9 708.69 349.54C708.04 348.19 707.69 346.72 707.67 345.22C707.65 343.73 707.95 342.24 708.55 340.87C709.15 339.5 710.04 338.28 711.16 337.28C713.48 335.32 717.18 334.34 722.27 334.33L734.27 334.33L734.27 332C734.27 328.73 733.36 326.25 731.54 324.54C729.72 322.83 727.05 321.99 723.54 321.99C722.95 321.99 722.37 322.01 721.78 322.06C721.2 322.11 720.61 322.19 720.03 322.29C719.45 322.38 718.88 322.51 718.31 322.66C717.74 322.81 717.18 322.98 716.63 323.18C716.11 323.36 715.6 323.56 715.1 323.79C714.6 324.02 714.11 324.27 713.63 324.55C713.16 324.82 712.7 325.12 712.25 325.43C711.8 325.75 711.37 326.09 710.95 326.45L708.64 322.64C709.15 322.22 709.68 321.82 710.22 321.45C710.77 321.08 711.33 320.73 711.91 320.42C712.49 320.1 713.09 319.81 713.69 319.55C714.3 319.29 714.92 319.06 715.55 318.86C716.23 318.64 716.93 318.44 717.63 318.27C718.32 318.1 719.03 317.96 719.74 317.85C720.45 317.74 721.17 317.65 721.88 317.6C722.6 317.54 723.32 317.52 724.04 317.52C729.01 317.51 732.81 318.75 735.45 321.22ZM731.18 348.86C731.64 348.45 732.07 347.99 732.46 347.51C732.85 347.02 733.2 346.51 733.51 345.97C733.82 345.43 734.08 344.86 734.3 344.28L734.3 338.09L722.43 338.09C715.95 338.09 712.71 340.35 712.71 344.86C712.69 345.36 712.73 345.86 712.84 346.36C712.94 346.85 713.1 347.33 713.32 347.78C713.54 348.23 713.81 348.65 714.14 349.04C714.46 349.43 714.82 349.77 715.23 350.07C716.91 351.35 719.23 351.98 722.23 351.98C722.88 352 723.54 351.97 724.19 351.9C724.84 351.82 725.48 351.7 726.11 351.54C726.74 351.37 727.36 351.16 727.96 350.9C728.56 350.64 729.14 350.34 729.7 350C730.22 349.66 730.72 349.28 731.18 348.86Z" />
			<path id="Layer" class="shp0" d="M792.34 319.46C793.02 319.12 793.72 318.82 794.43 318.56C795.15 318.3 795.88 318.09 796.62 317.93C797.36 317.76 798.12 317.65 798.87 317.58C799.63 317.51 800.39 317.48 801.15 317.51L801.15 322.51L799.93 322.44C795.93 322.44 792.81 323.66 790.57 326.11C788.33 328.56 787.2 331.99 787.19 336.41L787.19 355.7L782.08 355.7L782.08 317.8L787 317.8L787 325.22C787.27 324.61 787.6 324.03 787.97 323.47C788.33 322.92 788.75 322.39 789.2 321.9C789.65 321.42 790.14 320.96 790.67 320.55C791.2 320.15 791.75 319.78 792.34 319.46L792.34 319.46Z" />
			<path id="Layer" fill-rule="evenodd" class="shp0" d="M871.75 338.32L840.08 338.32C840.12 339.22 840.25 340.12 840.47 341C840.68 341.88 840.99 342.73 841.38 343.55C841.77 344.37 842.24 345.15 842.78 345.87C843.33 346.59 843.94 347.26 844.62 347.86C845.33 348.47 846.1 349.02 846.91 349.49C847.72 349.96 848.58 350.35 849.46 350.67C850.35 350.98 851.26 351.2 852.19 351.34C853.12 351.48 854.06 351.54 855 351.5C855.55 351.51 856.11 351.48 856.66 351.43C857.21 351.38 857.76 351.31 858.3 351.2C858.85 351.09 859.39 350.96 859.92 350.8C860.45 350.64 860.97 350.45 861.48 350.24C861.97 350.03 862.44 349.8 862.91 349.53C863.37 349.27 863.81 348.98 864.24 348.67C864.67 348.36 865.08 348.02 865.48 347.67C865.87 347.31 866.24 346.93 866.59 346.53L869.46 349.84C869.04 350.34 868.59 350.82 868.11 351.27C867.63 351.72 867.13 352.14 866.6 352.53C866.07 352.92 865.52 353.28 864.94 353.6C864.37 353.92 863.78 354.2 863.17 354.45C862.51 354.72 861.84 354.95 861.16 355.16C860.48 355.36 859.79 355.53 859.09 355.66C858.4 355.79 857.69 355.89 856.99 355.95C856.28 356.01 855.57 356.04 854.86 356.03C853.96 356.05 853.07 356.01 852.18 355.91C851.29 355.82 850.41 355.66 849.54 355.45C848.67 355.25 847.81 354.98 846.97 354.66C846.14 354.34 845.32 353.97 844.53 353.55C843.8 353.15 843.1 352.71 842.44 352.21C841.77 351.72 841.14 351.18 840.55 350.6C839.96 350.02 839.41 349.4 838.9 348.74C838.4 348.08 837.94 347.39 837.53 346.67C837.11 345.92 836.73 345.14 836.41 344.34C836.09 343.53 835.82 342.71 835.61 341.87C835.4 341.04 835.24 340.18 835.14 339.33C835.04 338.47 835 337.6 835.01 336.74C835 335.88 835.04 335.02 835.13 334.16C835.23 333.3 835.38 332.45 835.58 331.61C835.79 330.78 836.04 329.95 836.35 329.15C836.66 328.34 837.02 327.56 837.43 326.8C837.81 326.1 838.24 325.42 838.71 324.78C839.18 324.13 839.69 323.52 840.25 322.95C840.8 322.37 841.39 321.84 842.02 321.35C842.65 320.85 843.31 320.4 844 320C844.72 319.59 845.46 319.23 846.22 318.92C846.98 318.6 847.77 318.34 848.57 318.14C849.36 317.93 850.17 317.78 850.99 317.68C851.81 317.58 852.64 317.54 853.46 317.55C854.28 317.54 855.1 317.58 855.92 317.68C856.73 317.78 857.54 317.93 858.34 318.14C859.13 318.34 859.91 318.6 860.67 318.91C861.43 319.23 862.17 319.59 862.88 320C863.57 320.4 864.23 320.85 864.86 321.34C865.48 321.84 866.08 322.37 866.63 322.95C867.18 323.52 867.69 324.14 868.16 324.78C868.63 325.43 869.05 326.11 869.43 326.81C869.84 327.57 870.19 328.37 870.5 329.18C870.81 329.99 871.06 330.81 871.26 331.66C871.46 332.5 871.61 333.35 871.7 334.22C871.79 335.08 871.83 335.94 871.81 336.81L871.75 338.32ZM844.29 325.4C843.67 325.99 843.11 326.64 842.61 327.34C842.11 328.04 841.68 328.78 841.32 329.56C840.96 330.33 840.68 331.14 840.47 331.98C840.26 332.81 840.13 333.65 840.08 334.51L866.93 334.51C866.88 333.65 866.75 332.81 866.54 331.98C866.33 331.14 866.05 330.33 865.69 329.56C865.33 328.78 864.9 328.04 864.4 327.34C863.9 326.64 863.34 325.99 862.72 325.4C861.46 324.28 860.01 323.41 858.43 322.81C856.86 322.22 855.19 321.91 853.5 321.91C851.82 321.91 850.15 322.22 848.58 322.81C847 323.41 845.55 324.28 844.29 325.4Z" />
			<path id="Layer" class="shp0" d="M986.88 353.37C986.62 353.6 986.35 353.81 986.07 354.01C985.8 354.21 985.51 354.39 985.21 354.56C984.91 354.73 984.6 354.88 984.28 355.02C983.97 355.15 983.65 355.27 983.32 355.37C982.96 355.48 982.6 355.58 982.24 355.67C981.87 355.76 981.5 355.83 981.13 355.89C980.76 355.94 980.39 355.98 980.01 356.01C979.64 356.04 979.27 356.05 978.89 356.05C975.34 356.05 972.61 355.1 970.69 353.17C968.77 351.24 967.81 348.54 967.81 345.04L967.81 322.14L961.05 322.14L961.05 317.8L967.81 317.8L967.81 309.52L972.92 309.52L972.92 317.8L984.44 317.8L984.44 322.12L972.92 322.12L972.92 344.73C972.89 345.19 972.9 345.66 972.96 346.12C973.02 346.58 973.12 347.03 973.26 347.47C973.41 347.91 973.59 348.34 973.82 348.74C974.05 349.14 974.31 349.53 974.61 349.88C974.93 350.19 975.28 350.46 975.66 350.69C976.04 350.93 976.44 351.12 976.85 351.27C977.27 351.42 977.7 351.53 978.14 351.59C978.58 351.65 979.03 351.67 979.47 351.64C979.73 351.64 979.99 351.63 980.25 351.61C980.51 351.59 980.76 351.56 981.02 351.52C981.28 351.48 981.53 351.42 981.78 351.36C982.04 351.3 982.28 351.22 982.53 351.14C982.76 351.06 982.99 350.97 983.22 350.87C983.44 350.77 983.66 350.66 983.87 350.54C984.09 350.42 984.3 350.29 984.5 350.15C984.7 350.01 984.89 349.86 985.08 349.7L986.88 353.37Z" />
			<path id="Layer" fill-rule="evenodd" class="shp0" d="M1056.54 338.32L1024.88 338.32C1024.92 339.22 1025.05 340.12 1025.26 341C1025.48 341.88 1025.79 342.73 1026.17 343.55C1026.56 344.37 1027.03 345.14 1027.58 345.87C1028.12 346.59 1028.73 347.26 1029.41 347.86C1030.12 348.47 1030.88 349.02 1031.7 349.49C1032.51 349.96 1033.36 350.35 1034.24 350.66C1035.13 350.97 1036.04 351.2 1036.97 351.34C1037.9 351.48 1038.83 351.53 1039.77 351.5C1040.32 351.51 1040.88 351.48 1041.43 351.43C1041.98 351.38 1042.53 351.31 1043.07 351.2C1043.62 351.09 1044.16 350.96 1044.69 350.8C1045.22 350.64 1045.74 350.45 1046.25 350.24C1046.74 350.03 1047.21 349.8 1047.68 349.53C1048.14 349.27 1048.58 348.99 1049.01 348.67C1049.44 348.36 1049.86 348.03 1050.25 347.67C1050.64 347.31 1051.01 346.93 1051.36 346.53L1054.24 349.84C1053.82 350.35 1053.37 350.82 1052.89 351.27C1052.41 351.72 1051.9 352.14 1051.37 352.53C1050.84 352.92 1050.29 353.28 1049.72 353.6C1049.14 353.92 1048.55 354.2 1047.94 354.45C1047.28 354.72 1046.61 354.95 1045.93 355.16C1045.25 355.36 1044.56 355.53 1043.86 355.66C1043.17 355.79 1042.46 355.89 1041.76 355.95C1041.05 356.01 1040.34 356.04 1039.63 356.03C1038.73 356.05 1037.84 356.01 1036.95 355.91C1036.06 355.82 1035.18 355.66 1034.31 355.45C1033.44 355.25 1032.58 354.98 1031.74 354.66C1030.91 354.34 1030.09 353.97 1029.3 353.55C1028.57 353.15 1027.87 352.71 1027.21 352.21C1026.54 351.72 1025.91 351.18 1025.32 350.6C1024.73 350.02 1024.18 349.4 1023.67 348.74C1023.17 348.08 1022.71 347.39 1022.3 346.67C1021.88 345.92 1021.5 345.14 1021.18 344.34C1020.86 343.53 1020.59 342.71 1020.38 341.87C1020.17 341.04 1020.01 340.18 1019.91 339.33C1019.81 338.47 1019.77 337.6 1019.78 336.74C1019.77 335.88 1019.81 335.02 1019.9 334.16C1020 333.3 1020.14 332.45 1020.35 331.62C1020.55 330.78 1020.81 329.95 1021.12 329.15C1021.42 328.34 1021.78 327.56 1022.19 326.8C1022.57 326.09 1023 325.41 1023.47 324.76C1023.95 324.11 1024.47 323.5 1025.03 322.92C1025.58 322.34 1026.18 321.81 1026.82 321.31C1027.45 320.81 1028.12 320.36 1028.81 319.96C1030.25 319.16 1031.78 318.55 1033.38 318.13C1034.97 317.72 1036.61 317.51 1038.26 317.51C1039.9 317.51 1041.54 317.72 1043.13 318.13C1044.73 318.55 1046.26 319.16 1047.7 319.96C1048.39 320.36 1049.05 320.81 1049.67 321.31C1050.3 321.8 1050.89 322.34 1051.44 322.91C1052 323.49 1052.51 324.1 1052.98 324.75C1053.45 325.39 1053.87 326.07 1054.25 326.77C1054.65 327.54 1055.01 328.33 1055.31 329.14C1055.62 329.95 1055.87 330.78 1056.07 331.62C1056.27 332.46 1056.42 333.32 1056.51 334.18C1056.6 335.04 1056.64 335.9 1056.62 336.77L1056.54 338.32ZM1027.41 327.34C1026.91 328.03 1026.48 328.78 1026.12 329.55C1025.76 330.33 1025.47 331.14 1025.26 331.97C1025.06 332.81 1024.93 333.65 1024.88 334.51L1051.72 334.51C1051.67 333.65 1051.54 332.81 1051.33 331.98C1051.12 331.14 1050.84 330.33 1050.48 329.56C1050.12 328.78 1049.69 328.04 1049.19 327.34C1048.69 326.64 1048.13 325.99 1047.51 325.4C1046.25 324.29 1044.8 323.41 1043.22 322.81C1041.65 322.22 1039.98 321.91 1038.3 321.91C1036.62 321.91 1034.95 322.22 1033.38 322.81C1031.8 323.41 1030.35 324.29 1029.09 325.4C1028.47 325.99 1027.91 326.64 1027.41 327.34Z" />
			<path id="Layer" fill-rule="evenodd" class="shp0" d="M1119.36 321.22C1122 323.7 1123.36 327.35 1123.36 332.22L1123.36 355.69L1118.47 355.69L1118.47 349.79C1118.17 350.29 1117.84 350.76 1117.47 351.21C1117.1 351.66 1116.7 352.08 1116.27 352.47C1115.84 352.86 1115.39 353.22 1114.9 353.54C1114.42 353.87 1113.91 354.15 1113.39 354.4C1112.77 354.69 1112.14 354.94 1111.49 355.15C1110.84 355.37 1110.18 355.55 1109.51 355.68C1108.84 355.82 1108.17 355.92 1107.49 355.98C1106.81 356.05 1106.12 356.07 1105.44 356.05C1101.22 356.05 1097.86 355.05 1095.37 353.05C1094.22 352.09 1093.29 350.9 1092.64 349.55C1091.99 348.2 1091.65 346.72 1091.62 345.22C1091.6 343.73 1091.89 342.24 1092.5 340.87C1093.1 339.5 1093.99 338.27 1095.11 337.28C1097.44 335.32 1101.15 334.34 1106.23 334.33L1118.23 334.33L1118.23 332C1118.23 328.73 1117.32 326.25 1115.49 324.54C1113.66 322.83 1111.01 321.99 1107.49 321.99C1106.9 321.99 1106.32 322.01 1105.73 322.06C1105.15 322.11 1104.56 322.19 1103.98 322.29C1103.4 322.38 1102.83 322.51 1102.26 322.66C1101.69 322.81 1101.13 322.98 1100.58 323.18C1100.06 323.36 1099.55 323.56 1099.05 323.79C1098.55 324.02 1098.06 324.27 1097.58 324.55C1097.1 324.82 1096.64 325.12 1096.19 325.43C1095.74 325.75 1095.31 326.09 1094.89 326.45L1092.59 322.64C1093.1 322.22 1093.63 321.82 1094.17 321.45C1094.72 321.08 1095.28 320.73 1095.86 320.41C1096.44 320.1 1097.04 319.81 1097.64 319.55C1098.25 319.29 1098.87 319.06 1099.5 318.86C1100.18 318.64 1100.88 318.44 1101.58 318.27C1102.27 318.1 1102.98 317.96 1103.69 317.85C1104.4 317.74 1105.12 317.65 1105.83 317.6C1106.55 317.54 1107.27 317.52 1107.99 317.52C1112.93 317.51 1116.72 318.75 1119.36 321.22ZM1115.08 348.86C1115.54 348.45 1115.97 347.99 1116.36 347.51C1116.75 347.02 1117.1 346.51 1117.41 345.97C1117.72 345.43 1117.99 344.86 1118.21 344.28L1118.21 338.09L1106.34 338.09C1099.86 338.09 1096.62 340.35 1096.62 344.86C1096.6 345.36 1096.64 345.86 1096.75 346.36C1096.85 346.85 1097.01 347.33 1097.23 347.78C1097.45 348.23 1097.72 348.65 1098.05 349.04C1098.37 349.43 1098.73 349.77 1099.14 350.07C1100.82 351.35 1103.14 351.98 1106.14 351.98C1106.79 352 1107.45 351.97 1108.09 351.9C1108.74 351.83 1109.38 351.7 1110.02 351.54C1110.65 351.37 1111.26 351.16 1111.86 350.9C1112.46 350.64 1113.04 350.34 1113.6 350C1114.12 349.66 1114.62 349.28 1115.08 348.86Z" />
			<path id="Layer" class="shp0" d="M1224.39 321.62C1227.1 324.35 1228.45 328.39 1228.45 333.71L1228.45 355.71L1223.34 355.71L1223.34 334.22C1223.34 330.28 1222.4 327.28 1220.5 325.22C1218.6 323.16 1215.93 322.12 1212.5 322.12C1208.56 322.12 1205.46 323.33 1203.21 325.76C1200.96 328.19 1199.83 331.52 1199.83 335.76L1199.83 355.63L1194.72 355.63L1194.72 334.22C1194.72 330.28 1193.78 327.28 1191.88 325.22C1189.98 323.16 1187.29 322.12 1183.79 322.12C1182.94 322.08 1182.08 322.13 1181.24 322.27C1180.4 322.41 1179.57 322.63 1178.77 322.95C1177.98 323.26 1177.22 323.66 1176.51 324.13C1175.8 324.6 1175.14 325.15 1174.54 325.76C1172.26 328.18 1171.12 331.51 1171.12 335.76L1171.12 355.63L1166 355.63L1166 317.8L1170.89 317.8L1170.89 324.71C1171.22 324.14 1171.59 323.6 1171.99 323.09C1172.4 322.58 1172.84 322.1 1173.32 321.65C1173.79 321.2 1174.3 320.78 1174.83 320.4C1175.37 320.03 1175.93 319.69 1176.51 319.39C1177.15 319.07 1177.8 318.79 1178.48 318.54C1179.15 318.3 1179.83 318.1 1180.53 317.94C1181.23 317.79 1181.93 317.67 1182.64 317.6C1183.35 317.53 1184.07 317.5 1184.78 317.51C1185.49 317.49 1186.21 317.52 1186.92 317.6C1187.63 317.67 1188.34 317.79 1189.03 317.96C1189.73 318.13 1190.41 318.35 1191.08 318.6C1191.74 318.86 1192.39 319.17 1193.02 319.51C1193.6 319.85 1194.16 320.24 1194.68 320.67C1195.2 321.1 1195.68 321.57 1196.12 322.08C1196.57 322.59 1196.97 323.13 1197.32 323.71C1197.68 324.28 1197.98 324.89 1198.24 325.51C1198.58 324.89 1198.97 324.3 1199.4 323.73C1199.83 323.17 1200.31 322.63 1200.81 322.14C1201.32 321.64 1201.86 321.18 1202.44 320.77C1203.01 320.35 1203.61 319.97 1204.24 319.64C1204.93 319.28 1205.64 318.96 1206.37 318.68C1207.1 318.41 1207.85 318.18 1208.6 318C1209.36 317.82 1210.13 317.69 1210.91 317.61C1211.68 317.53 1212.46 317.49 1213.24 317.51C1217.97 317.51 1221.68 318.88 1224.39 321.62Z" />
		</g>
	</g>
</svg>