<svg xmlns="http://www.w3.org/2000/svg" viewBox="0 0 1294.66 380.5"><defs><style>.cls-1{fill:#eac50f;}</style></defs><g id="Layer_2" data-name="Layer 2"><g id="Layer_1-2" data-name="Layer 1"><path class="cls-1" d="M76.24,314,22.12,279.25A37.51,37.51,0,0,1,3.51,247.06L3,100.6A37.51,37.51,0,0,1,21.58,68.11l103-60A37.51,37.51,0,0,1,162,7.92L265.45,67.07A37.53,37.53,0,0,1,284.3,99.41l.51,146.46a37.55,37.55,0,0,1-18.44,32.41L209.87,314h0a30.79,30.79,0,0,1,14-25.81l34.88-22.66A22.62,22.62,0,0,0,270,245.93l-.5-146.47A22.68,22.68,0,0,0,258.08,80L154.61,20.81A22.64,22.64,0,0,0,132,20.9l-103,60a22.62,22.62,0,0,0-11.21,19.6L18.35,247a22.65,22.65,0,0,0,11.38,19.5l.45.28,32.28,21.39a30.78,30.78,0,0,1,13.78,25.65Z"/><path class="cls-1" d="M79.24,319.49,20.55,281.81a40.58,40.58,0,0,1-20-34.74L0,100.61A40.54,40.54,0,0,1,20.07,65.52l103-60a40.54,40.54,0,0,1,40.43-.18L266.94,64.47A40.54,40.54,0,0,1,287.3,99.4l.51,146.46a40.55,40.55,0,0,1-19.92,35l-61,38.58V314a33.64,33.64,0,0,1,15.37-28.32l35-22.74a19.63,19.63,0,0,0,9.72-17l-.5-146.47a19.62,19.62,0,0,0-9.87-16.9L153.12,23.41a19.62,19.62,0,0,0-19.58.09l-103,60a19.63,19.63,0,0,0-9.72,17L21.35,247a19.62,19.62,0,0,0,9.87,16.91l.53.33,32.37,21.44a33.7,33.7,0,0,1,15.12,28.15Zm181.09-51.4-34.82,22.62a27.64,27.64,0,0,0-12,17.45l51.29-32.42a34.59,34.59,0,0,0,17-29.85L281.3,99.42A34.51,34.51,0,0,0,264,69.68L160.49,10.52a34.53,34.53,0,0,0-34.43.15l-103,60A34.54,34.54,0,0,0,6,100.58l.51,146.47a34.55,34.55,0,0,0,17.12,29.61l.11.07,48.91,31.4A27.66,27.66,0,0,0,60.8,290.67L28.2,269.08A25.62,25.62,0,0,1,15.35,247l-.5-146.47a25.64,25.64,0,0,1,12.7-22.21l103-60a25.67,25.67,0,0,1,25.59-.11L259.57,77.36a25.65,25.65,0,0,1,12.89,22.09l.5,146.47A25.66,25.66,0,0,1,260.33,268.09Z"/><rect class="cls-1" x="59.4" y="331" width="169" height="21" rx="7.48"/><path class="cls-1" d="M220.92,352.5h-154a8,8,0,0,1-8-8v-6a8,8,0,0,1,8-8h154a8,8,0,0,1,8,8v6A8,8,0,0,1,220.92,352.5Zm-154-21a7,7,0,0,0-7,7v6a7,7,0,0,0,7,7h154a7,7,0,0,0,7-7v-6a7,7,0,0,0-7-7Z"/><rect class="cls-1" x="71.16" y="357.91" width="145.49" height="22.09" rx="7.8"/><path class="cls-1" d="M208.85,380.5H79a8.31,8.31,0,0,1-8.3-8.3v-6.49a8.31,8.31,0,0,1,8.3-8.3H208.85a8.31,8.31,0,0,1,8.3,8.3v6.49A8.31,8.31,0,0,1,208.85,380.5ZM79,358.41a7.3,7.3,0,0,0-7.3,7.3v6.49a7.31,7.31,0,0,0,7.3,7.3H208.85a7.32,7.32,0,0,0,7.3-7.3v-6.49a7.31,7.31,0,0,0-7.3-7.3Z"/><path class="cls-1" d="M179.76,226.18h0a5.11,5.11,0,0,1-3.67-1.54l-31.63-32.06-31.63,32.06a5.11,5.11,0,0,1-3.67,1.54h0a5.14,5.14,0,0,1-3.67-1.51L71.23,190.43,54,172.74a3,3,0,0,1,4.3-4.18l17.17,17.65,33.62,33.63,31.63-32.07a5.16,5.16,0,0,1,3.69-1.54h0a5.16,5.16,0,0,1,3.69,1.54l31.63,32.07,33.66-33.66,17.13-17.62a3,3,0,1,1,4.3,4.18L217.7,190.4l-34.27,34.27A5.14,5.14,0,0,1,179.76,226.18Z"/><path class="cls-1" d="M179.77,226.68h0a5.6,5.6,0,0,1-4-1.69l-31.27-31.7L113.18,225a5.6,5.6,0,0,1-4,1.69h0a5.66,5.66,0,0,1-4-1.66L70.88,190.78l-17.2-17.69a3.5,3.5,0,0,1,5-4.88l17.16,17.65,33.27,33.27,31.28-31.71a5.67,5.67,0,0,1,8.08,0l31.28,31.71,33.3-33.3,17.13-17.62a3.5,3.5,0,1,1,5,4.88l-17.16,17.65L183.78,225A5.64,5.64,0,0,1,179.77,226.68Zm-35.32-34.82,32,32.43a4.6,4.6,0,0,0,3.32,1.39l0,.5v-.5a4.6,4.6,0,0,0,3.3-1.37L217.35,190,234.5,172.4a2.5,2.5,0,1,0-3.58-3.49l-17.13,17.62-34,34-32-32.43a4.68,4.68,0,0,0-6.66,0l-32,32.43-34-34L58,168.91a2.5,2.5,0,1,0-3.59,3.49l17.19,17.68,34.24,34.23a4.68,4.68,0,0,0,6.64,0Z"/><path class="cls-1" d="M180,226.85a3,3,0,0,1-2.13-.88L108.8,156.56a5.18,5.18,0,0,1,0-7.33l32-31.73a5.21,5.21,0,0,1,7.27,0l16.85,16.47a3,3,0,1,1-4.19,4.29l-16.27-15.9-30.84,30.58,68.5,68.83a3,3,0,0,1-2.13,5.11Z"/><path class="cls-1" d="M180,227.35a3.45,3.45,0,0,1-2.48-1l-69.08-69.41a5.7,5.7,0,0,1,0-8l32-31.72a5.69,5.69,0,0,1,8,0l16.85,16.46a3.5,3.5,0,1,1-4.89,5L144.47,123l-30.13,29.88,68.14,68.47a3.5,3.5,0,0,1-2.48,6ZM144.46,116.51a4.65,4.65,0,0,0-3.29,1.35l-32,31.72a4.71,4.71,0,0,0,0,6.63l69.08,69.41a2.55,2.55,0,0,0,3.53,0,2.5,2.5,0,0,0,0-3.53l-68.84-69.18,31.53-31.28,16.63,16.24a2.5,2.5,0,1,0,3.5-3.57l-16.86-16.47A4.67,4.67,0,0,0,144.46,116.51Z"/><path class="cls-1" d="M145,260.37a5.19,5.19,0,0,1-3.62-1.46l-14-13.33a3,3,0,1,1,4.14-4.34L145,254.06l71.4-70.83a3,3,0,1,1,4.22,4.26l-72,71.4A5.19,5.19,0,0,1,145,260.37Zm.54-5.79h0Z"/><path class="cls-1" d="M145,260.87a5.66,5.66,0,0,1-4-1.6l-14-13.32a3.5,3.5,0,1,1,4.83-5.07L145,253.36l71-70.48a3.5,3.5,0,0,1,4.94,5l-72,71.39A5.68,5.68,0,0,1,145,260.87Zm-15.52-20a2.5,2.5,0,0,0-1.73,4.31l14,13.33a4.72,4.72,0,0,0,6.57,0l72-71.39a2.5,2.5,0,1,0-3.52-3.55L145,254.76l-13.8-13.16A2.48,2.48,0,0,0,129.47,240.91ZM145.21,255l0,0,0,0,.63-.77,0,0Z"/><path class="cls-1" d="M170.09,153.25a10,10,0,1,1,10-10A10,10,0,0,1,170.09,153.25Zm0-16.58a6.62,6.62,0,1,0,6.62,6.62A6.63,6.63,0,0,0,170.09,136.67Z"/><path class="cls-1" d="M170.09,153.75a10.46,10.46,0,1,1,10.46-10.46A10.48,10.48,0,0,1,170.09,153.75Zm0-19.92a9.46,9.46,0,1,0,9.46,9.46A9.47,9.47,0,0,0,170.09,133.83Zm0,16.58a7.12,7.12,0,1,1,7.12-7.12A7.13,7.13,0,0,1,170.09,150.41Zm0-13.24a6.12,6.12,0,1,0,6.12,6.12A6.12,6.12,0,0,0,170.09,137.17Z"/><circle class="cls-1" cx="124.47" cy="237.51" r="6.81"/><path class="cls-1" d="M124.47,244.82a7.31,7.31,0,1,1,7.31-7.31A7.32,7.32,0,0,1,124.47,244.82Zm0-13.62a6.31,6.31,0,1,0,6.31,6.31A6.32,6.32,0,0,0,124.47,231.2Z"/><path class="cls-1" d="M124.47,246.32a8.81,8.81,0,1,1,8.81-8.81A8.82,8.82,0,0,1,124.47,246.32Zm0-13.62a4.81,4.81,0,1,0,4.81,4.81A4.82,4.82,0,0,0,124.47,232.7Z"/><path class="cls-1" d="M124.47,246.82a9.31,9.31,0,1,1,9.31-9.31A9.33,9.33,0,0,1,124.47,246.82Zm0-17.62a8.31,8.31,0,1,0,8.31,8.31A8.32,8.32,0,0,0,124.47,229.2Zm0,13.62a5.31,5.31,0,1,1,5.31-5.31A5.31,5.31,0,0,1,124.47,242.82Zm0-9.62a4.31,4.31,0,1,0,4.31,4.31A4.32,4.32,0,0,0,124.47,233.2Z"/><path class="cls-1" d="M239.52,173.32a10,10,0,1,1,10-10A10,10,0,0,1,239.52,173.32Zm0-16.58a6.62,6.62,0,1,0,6.62,6.62A6.63,6.63,0,0,0,239.52,156.74Z"/><path class="cls-1" d="M239.52,173.82A10.46,10.46,0,1,1,250,163.36,10.47,10.47,0,0,1,239.52,173.82Zm0-19.92a9.46,9.46,0,1,0,9.46,9.46A9.47,9.47,0,0,0,239.52,153.9Zm0,16.58a7.12,7.12,0,1,1,7.12-7.12A7.13,7.13,0,0,1,239.52,170.48Zm0-13.24a6.12,6.12,0,1,0,6.12,6.12A6.13,6.13,0,0,0,239.52,157.24Z"/><path class="cls-1" d="M51.29,172.43a10,10,0,1,1,10-10A10,10,0,0,1,51.29,172.43Zm0-16.58a6.62,6.62,0,1,0,6.62,6.62A6.63,6.63,0,0,0,51.29,155.85Z"/><path class="cls-1" d="M51.29,172.93a10.46,10.46,0,1,1,10.45-10.46A10.47,10.47,0,0,1,51.29,172.93Zm0-19.92a9.46,9.46,0,1,0,9.45,9.46A9.47,9.47,0,0,0,51.29,153Zm0,16.58a7.12,7.12,0,1,1,7.12-7.12A7.13,7.13,0,0,1,51.29,169.59Zm0-13.24a6.12,6.12,0,1,0,6.12,6.12A6.13,6.13,0,0,0,51.29,156.35Z"/><path class="cls-1" d="M145.4,332a3,3,0,0,1-3-3V257a3,3,0,0,1,6,0v72A3,3,0,0,1,145.4,332Z"/><path class="cls-1" d="M145.4,332.5a3.5,3.5,0,0,1-3.5-3.5V257a3.5,3.5,0,0,1,7,0v72A3.5,3.5,0,0,1,145.4,332.5Zm0-78a2.51,2.51,0,0,0-2.5,2.5v72a2.5,2.5,0,0,0,5,0V257A2.5,2.5,0,0,0,145.4,254.5Z"/><path class="cls-1" d="M334.16,230l19.44-10.37C364,238.14,379.2,254,410.3,254c25.6,0,45.69-14.25,45.69-37.58,0-22.36-13.93-33.7-41.47-46l-17.5-8.1c-31.43-14.26-48.6-29.48-48.6-60.26,0-31.76,24.95-52.82,58-52.82,29.48,0,47.95,13.61,59.61,33.05L447.24,94c-8.42-13.61-20.09-24-40.82-24-21.71,0-35,12.64-35,31.43,0,19.44,10.37,28.19,35,39.53l17.49,8.1c36.61,16.2,55.41,34.34,55.41,67.39,0,36.29-28.84,58.32-68.37,58.32C368.83,274.75,345.83,253.37,334.16,230ZM447.24,94,466,82.29Z"/><path class="cls-1" d="M594.61,73.65a101.06,101.06,0,0,1,44,16.88c7.48,5.1,19.71,17.11,25.09,24.75a129.05,129.05,0,0,1,13.37,26.34,101.44,101.44,0,0,1-11.72,87.79c-4.42,6.74-6,8.61-12.18,15-14.73,15-31.95,24.19-53.07,28.49-5.61,1.14-8.22,1.31-18.69,1.31s-13.09-.17-18.7-1.31c-25.48-5.15-45.82-17.78-62.13-38.74-7.76-9.85-12-17.73-15.35-28.2-3.17-10-3.79-14.11-3.74-24.93,0-9.06.17-10.3,1.53-14.89,5.78-18.92,19.32-31.55,37.73-35.23,5.83-1.19,17.72-.91,22.93.51,9.86,2.72,17.34,9.23,20.68,18.07.56,1.53.45,1.47-2.32-1a33.52,33.52,0,0,0-29.91-7.76c-12.63,3-23.56,14.33-27.24,28.21a46.93,46.93,0,0,0,.28,22.94c6.17,22.48,20.9,39.7,43,50.3a75.7,75.7,0,0,0,48.94,6.28c29.62-6.06,52-26.84,59.35-55a78.71,78.71,0,0,0,1.14-28.95c-3.74-22.6-17.22-41-40.1-54.83a96.12,96.12,0,0,0-29.29-11.38c-41.06-8.38-82,10.59-102.74,47.58-2.44,4.25-2.27,3.06.62-5.27a100.91,100.91,0,0,1,83.6-67.17A122.2,122.2,0,0,1,594.61,73.65Z"/><path class="cls-1" d="M696.4,75h20.88V253.6H793l17.4,18.56h-114V75Z"/><path class="cls-1" d="M760.49,75h22.62l54.23,133.69c4.06,9.86,8.41,26.68,8.41,26.68s4.35-16.82,8.41-26.68l24.3-60.24L847.78,75H870.4l18.9,46.6L908.1,75h21.17l-29.66,72,25,61.68c4.06,9.86,8.41,26.68,8.41,26.68s4.35-16.82,8.41-26.68L995.39,75h21.17L934.49,274.19H931l-42.2-101-41.61,101h-3.48Z"/><path class="cls-1" d="M1046.14,72.93h3.48l83.51,199.23h-22l-13.34-33.06H998l-13,33.06H964.36Zm51.62,166.17-7.54-18-34.8-87.58c-3.77-9.28-7.54-23.49-7.54-23.49s-4.06,14.21-7.83,23.49l-34.8,87.58h67.57Z"/><path class="cls-1" d="M1200.12,210.39,1125.6,75h23.49l53.64,98c4.35,7.54,8.41,20,8.41,20a201.2,201.2,0,0,1,8.41-20l53.36-98h21.75l-73.08,134.56v62.64l-21.46,17.4Z"/><path class="cls-1" d="M366.77,354.31a19.71,19.71,0,0,1-8-4.76l2.09-4.1a19.93,19.93,0,0,0,7.27,4.43,26.48,26.48,0,0,0,9.35,1.69q6.76,0,10.15-2.48a7.68,7.68,0,0,0,3.38-6.45,6.46,6.46,0,0,0-1.83-4.82,12.38,12.38,0,0,0-4.5-2.77,73.27,73.27,0,0,0-7.41-2.13,77.28,77.28,0,0,1-9.07-2.77,14.75,14.75,0,0,1-5.79-4.07,10.78,10.78,0,0,1-2.41-7.41,12.59,12.59,0,0,1,2-6.95,13.81,13.81,0,0,1,6.19-5,25.45,25.45,0,0,1,10.36-1.87,30.6,30.6,0,0,1,8.46,1.19,24.34,24.34,0,0,1,7.16,3.28l-1.8,4.24a24.93,24.93,0,0,0-6.77-3.13,25.4,25.4,0,0,0-7-1q-6.62,0-10,2.55a7.92,7.92,0,0,0-3.35,6.59,6.57,6.57,0,0,0,1.83,4.86,12,12,0,0,0,4.61,2.81q2.77,1,7.45,2.12a78.34,78.34,0,0,1,9,2.7,14.7,14.7,0,0,1,5.79,4,10.67,10.67,0,0,1,2.38,7.3,12.4,12.4,0,0,1-2.06,6.95,13.7,13.7,0,0,1-6.29,5,26.37,26.37,0,0,1-10.44,1.84A32.26,32.26,0,0,1,366.77,354.31Z"/><path class="cls-1" d="M441.21,353.55a18.05,18.05,0,0,1-6.91-6.88,20.84,20.84,0,0,1,0-19.87,18,18,0,0,1,6.91-6.84,21,21,0,0,1,19.71,0,17.74,17.74,0,0,1,6.88,6.84,21.14,21.14,0,0,1,0,19.87,17.84,17.84,0,0,1-6.88,6.88,20.82,20.82,0,0,1-19.71,0Zm17.09-3.89a12.78,12.78,0,0,0,5-5.22,17.39,17.39,0,0,0,0-15.41,12.9,12.9,0,0,0-5-5.22,15.22,15.22,0,0,0-14.47,0,13.11,13.11,0,0,0-5,5.22,17.05,17.05,0,0,0,0,15.41,13,13,0,0,0,5,5.22,15.14,15.14,0,0,0,14.47,0Z"/><path class="cls-1" d="M517,308a7.51,7.51,0,0,0-1.69,5.33v4.46H527v4.32H515.47v33.55h-5.11V322.12H503.6V317.8h6.76v-4.68a11.16,11.16,0,0,1,3-8.2q3-3,8.45-3a14.63,14.63,0,0,1,4.18.61,9.44,9.44,0,0,1,3.38,1.77l-1.73,3.81a8.43,8.43,0,0,0-5.61-1.87A6.52,6.52,0,0,0,517,308Z"/><path class="cls-1" d="M582.61,353.37a9.68,9.68,0,0,1-3.56,2,14.25,14.25,0,0,1-4.43.68c-3.55,0-6.28-.95-8.2-2.88s-2.88-4.63-2.88-8.13v-22.9h-6.76V317.8h6.76v-8.28h5.11v8.28h11.51v4.32H568.65v22.61a7.15,7.15,0,0,0,1.69,5.15,6.41,6.41,0,0,0,4.86,1.76,9.35,9.35,0,0,0,3.06-.5,7.76,7.76,0,0,0,2.55-1.44Z"/><path class="cls-1" d="M675.51,317.8l-14.32,37.87h-4.82l-12-31-11.94,31h-4.82L613.41,317.8h4.89L630.18,350l12.16-32.19h4.39L658.81,350l12-32.19Z"/><path class="cls-1" d="M735.45,321.22c2.64,2.48,4,6.13,4,11v23.47h-4.89v-5.9a11.65,11.65,0,0,1-5.08,4.61,17.79,17.79,0,0,1-8,1.65q-6.33,0-10.07-3a10.41,10.41,0,0,1-.25-15.77q3.48-2.94,11.11-2.95h12V332c0-3.27-.91-5.75-2.73-7.46s-4.49-2.55-8-2.55a20.36,20.36,0,0,0-6.91,1.19,17.41,17.41,0,0,0-5.68,3.27l-2.31-3.81a20.57,20.57,0,0,1,6.91-3.78,26.86,26.86,0,0,1,8.49-1.34Q731.49,317.51,735.45,321.22ZM729.7,350a11.76,11.76,0,0,0,4.6-5.72v-6.19H722.43q-9.72,0-9.72,6.77a6.18,6.18,0,0,0,2.52,5.21c1.68,1.28,4,1.91,7,1.91A13.5,13.5,0,0,0,729.7,350Z"/><path class="cls-1" d="M792.34,319.46a18.13,18.13,0,0,1,8.81-1.95v5l-1.22-.07q-6,0-9.36,3.67t-3.38,10.3v19.29h-5.11V317.8H787v7.42A12.35,12.35,0,0,1,792.34,319.46Z"/><path class="cls-1" d="M871.75,338.32H840.08a13.52,13.52,0,0,0,4.54,9.54A15,15,0,0,0,855,351.5a16.35,16.35,0,0,0,6.48-1.26,14.25,14.25,0,0,0,5.11-3.71l2.87,3.31a16.09,16.09,0,0,1-6.29,4.61,21.22,21.22,0,0,1-8.31,1.58,21,21,0,0,1-10.33-2.48,17.87,17.87,0,0,1-7-6.88,19.55,19.55,0,0,1-2.52-9.93,20.29,20.29,0,0,1,2.42-9.94A17.49,17.49,0,0,1,844,320a18.47,18.47,0,0,1,9.46-2.45,18.28,18.28,0,0,1,9.42,2.45,17.31,17.31,0,0,1,6.55,6.81,20.39,20.39,0,0,1,2.38,10ZM844.29,325.4a13.74,13.74,0,0,0-4.21,9.11h26.85a13.74,13.74,0,0,0-4.21-9.11,13.91,13.91,0,0,0-18.43,0Z"/><path class="cls-1" d="M986.88,353.37a9.68,9.68,0,0,1-3.56,2,14.25,14.25,0,0,1-4.43.68c-3.55,0-6.28-.95-8.2-2.88s-2.88-4.63-2.88-8.13v-22.9h-6.76V317.8h6.76v-8.28h5.11v8.28h11.52v4.32H972.92v22.61a7.2,7.2,0,0,0,1.69,5.15,6.41,6.41,0,0,0,4.86,1.76,9.26,9.26,0,0,0,3.06-.5,7.76,7.76,0,0,0,2.55-1.44Z"/><path class="cls-1" d="M1056.54,338.32h-31.66a13.51,13.51,0,0,0,4.53,9.54,15,15,0,0,0,10.36,3.64,16.35,16.35,0,0,0,6.48-1.26,14.16,14.16,0,0,0,5.11-3.71l2.88,3.31a16.12,16.12,0,0,1-6.3,4.61,21.22,21.22,0,0,1-8.31,1.58,21,21,0,0,1-10.33-2.48,17.84,17.84,0,0,1-7-6.88,19.55,19.55,0,0,1-2.52-9.93,20.28,20.28,0,0,1,2.41-9.94,17.49,17.49,0,0,1,6.62-6.84,19.43,19.43,0,0,1,18.89,0,17.45,17.45,0,0,1,6.55,6.81,20.49,20.49,0,0,1,2.37,10Zm-27.45-12.92a13.65,13.65,0,0,0-4.21,9.11h26.84a13.74,13.74,0,0,0-4.21-9.11,13.9,13.9,0,0,0-18.42,0Z"/><path class="cls-1" d="M1119.36,321.22c2.64,2.48,4,6.13,4,11v23.47h-4.89v-5.9a11.76,11.76,0,0,1-5.08,4.61,17.79,17.79,0,0,1-7.95,1.65q-6.33,0-10.07-3a10.4,10.4,0,0,1-.26-15.77q3.5-2.94,11.12-2.95h12V332c0-3.27-.91-5.75-2.74-7.46s-4.48-2.55-8-2.55a20.36,20.36,0,0,0-6.91,1.19,17.46,17.46,0,0,0-5.69,3.27l-2.3-3.81a20.47,20.47,0,0,1,6.91-3.78,26.86,26.86,0,0,1,8.49-1.34Q1115.4,317.51,1119.36,321.22ZM1113.6,350a11.78,11.78,0,0,0,4.61-5.72v-6.19h-11.87q-9.72,0-9.72,6.77a6.18,6.18,0,0,0,2.52,5.21c1.68,1.28,4,1.91,7,1.91A13.44,13.44,0,0,0,1113.6,350Z"/><path class="cls-1" d="M1224.39,321.62c2.71,2.73,4.06,6.77,4.06,12.09v22h-5.11V334.22c0-3.94-.94-6.94-2.84-9s-4.57-3.1-8-3.1q-5.91,0-9.29,3.64t-3.38,10v19.87h-5.11V334.22c0-3.94-.94-6.94-2.84-9s-4.59-3.1-8.09-3.1a12.1,12.1,0,0,0-9.25,3.64q-3.42,3.63-3.42,10v19.87H1166V317.8h4.89v6.91a13.73,13.73,0,0,1,5.62-5.32,17.6,17.6,0,0,1,8.27-1.88,16.23,16.23,0,0,1,8.24,2,12.41,12.41,0,0,1,5.22,6,14.72,14.72,0,0,1,6-5.87,18.46,18.46,0,0,1,9-2.13Q1220.33,317.51,1224.39,321.62Z"/></g></g></svg>